<svg xmlns="http://www.w3.org/2000/svg" width="26.32" height="16.67" viewBox="0 0 26.32 16.67"><path d="M10.62,7.45a2.83,2.83,0,0,0,2.49-3.1c0-2.92-2-4.35-4.62-4.35H0V16.32H8.49s5.19.16,5.19-4.82c0,0,.22-4-3.06-4ZM7.88,2.9h.61s1.16,0,1.16,1.7S9,6.54,8.2,6.54H3.74V2.9Zm.37,10.52H3.74V9.06H8.49s1.72,0,1.72,2.24c0,1.91-1.28,2.11-2,2.12ZM20.59,4.15c-6.27,0-6.27,6.27-6.27,6.27a5.79,5.79,0,0,0,6.27,6.24s5.59.32,5.59-4.34H23.3s.1,1.76-2.61,1.76a2.66,2.66,0,0,1-2.88-2.84h8.46s.93-7.09-5.68-7.09ZM17.78,9.06a2.92,2.92,0,0,1,2.88-2.52,2.42,2.42,0,0,1,2.48,2.52Zm6-6.09H17.08V1h6.73V3Z" fill="#aaa5a0"/></svg>