<svg xmlns="http://www.w3.org/2000/svg" width="95.62" height="19.93" viewBox="0 0 95.62 19.93"><path d="M7.38,12.09a2.57,2.57,0,0,1-.65,1.46,2,2,0,0,1-1.48.53,1.88,1.88,0,0,1-1.06-.28,2,2,0,0,1-.69-.73,3.14,3.14,0,0,1-.37-1A5.38,5.38,0,0,1,3,11a5.52,5.52,0,0,1,.12-1.14,3.25,3.25,0,0,1,.39-1A2.35,2.35,0,0,1,4.23,8a1.93,1.93,0,0,1,1.08-.29,1.79,1.79,0,0,1,2,1.68v.08h2.94v-.1a4.17,4.17,0,0,0-.49-1.76A4.13,4.13,0,0,0,8.64,6.39,4.76,4.76,0,0,0,7.1,5.66a6.47,6.47,0,0,0-1.77-.25,5.73,5.73,0,0,0-2.26.43A4.82,4.82,0,0,0,1.39,7a5.25,5.25,0,0,0-1,1.8A7,7,0,0,0,0,11.06,5.94,5.94,0,0,0,.38,13.2a5.24,5.24,0,0,0,1.07,1.69A4.81,4.81,0,0,0,3.12,16a5.75,5.75,0,0,0,2.15.39,5.23,5.23,0,0,0,3.4-1.09,4.71,4.71,0,0,0,1.62-3.17l0-.11H7.4ZM17.5,5.51a3.58,3.58,0,0,0-2,.61,3.26,3.26,0,0,0-.78.7,3.6,3.6,0,0,0-.39.57V5.78H11.52V16h3V11.4a5.41,5.41,0,0,1,.14-1.24,2.5,2.5,0,0,1,.44-1,2,2,0,0,1,.81-.66,3.27,3.27,0,0,1,1.75-.22,4.12,4.12,0,0,1,.46.07l.12,0V5.63l-.07,0A2.16,2.16,0,0,0,17.5,5.51ZM27.56,7.38A4.71,4.71,0,0,0,26,6a5,5,0,0,0-2.28-.5,5.39,5.39,0,0,0-2.13.41,4.93,4.93,0,0,0-2.73,2.86,6,6,0,0,0-.38,2.14,6.07,6.07,0,0,0,.37,2.17,4.94,4.94,0,0,0,1,1.71,4.64,4.64,0,0,0,1.65,1.1,5.8,5.8,0,0,0,2.18.39,5.38,5.38,0,0,0,3-.8,4.7,4.7,0,0,0,1.83-2.64l0-.12H25.88l0,.07a1.74,1.74,0,0,1-.7.83,2.45,2.45,0,0,1-1.39.4,2.36,2.36,0,0,1-1.72-.58h0a2.6,2.6,0,0,1-.64-1.77h7.24v-.09a7.4,7.4,0,0,0-.2-2.27A5.49,5.49,0,0,0,27.56,7.38ZM21.41,9.73a4.71,4.71,0,0,1,.11-.54,2,2,0,0,1,1-1.19,2.38,2.38,0,0,1,1.06-.21A1.85,1.85,0,0,1,25,8.3a3,3,0,0,1,.65,1.43Zm17.91,4V8.47a2.48,2.48,0,0,0-.43-1.53A3,3,0,0,0,37.81,6a4.87,4.87,0,0,0-1.45-.42,10.37,10.37,0,0,0-1.55-.11,8.72,8.72,0,0,0-1.69.16,5.2,5.2,0,0,0-1.52.57A3.44,3.44,0,0,0,30.48,7.3,3.23,3.23,0,0,0,30,8.69c0,.27,0,.36,0,.53h2.88A1.48,1.48,0,0,0,33,8.84a1.39,1.39,0,0,1,.48-1,2,2,0,0,1,1.23-.33,4.83,4.83,0,0,1,.68,0,1.39,1.39,0,0,1,.52.18,1,1,0,0,1,.36.37,1.4,1.4,0,0,1,.13.67.64.64,0,0,1-.22.57,1.69,1.69,0,0,1-.7.32,6.91,6.91,0,0,1-1,.18c-.4,0-.82.09-1.23.15s-.84.16-1.25.27a3.47,3.47,0,0,0-1.12.51,2.68,2.68,0,0,0-.81.92,3,3,0,0,0-.31,1.45,3.31,3.31,0,0,0,.27,1.39,2.69,2.69,0,0,0,.76,1,3.28,3.28,0,0,0,1.12.56,5,5,0,0,0,1.37.18A6.21,6.21,0,0,0,35.05,16a3.74,3.74,0,0,0,1.48-.65c.08.35.11.62.4.68h2.92C39.35,15.75,39.32,14.33,39.32,13.7Zm-3-1.65a4,4,0,0,1,0,.61,1.92,1.92,0,0,1-.25.73,1.75,1.75,0,0,1-.62.62,2.41,2.41,0,0,1-1.22.25,4.21,4.21,0,0,1-.62,0,1.46,1.46,0,0,1-.51-.19.94.94,0,0,1-.34-.37,1.2,1.2,0,0,1-.12-.57,1.31,1.31,0,0,1,.12-.6,1.21,1.21,0,0,1,.33-.38,1.56,1.56,0,0,1,.5-.25,4.44,4.44,0,0,1,.6-.16c.22,0,.44-.07.66-.09l.64-.1a4.74,4.74,0,0,0,.57-.15,1.26,1.26,0,0,0,.31-.14Zm36,1.65V8.47a2.48,2.48,0,0,0-.43-1.53A3,3,0,0,0,70.84,6a4.87,4.87,0,0,0-1.45-.42,10.37,10.37,0,0,0-1.55-.11,8.72,8.72,0,0,0-1.69.16,5.2,5.2,0,0,0-1.52.57A3.44,3.44,0,0,0,63.51,7.3,3.23,3.23,0,0,0,63,8.69c0,.27,0,.36,0,.53h2.88A1.48,1.48,0,0,0,66,8.84a1.39,1.39,0,0,1,.48-1,2,2,0,0,1,1.23-.33,4.83,4.83,0,0,1,.68,0,1.39,1.39,0,0,1,.52.18,1,1,0,0,1,.36.37,1.4,1.4,0,0,1,.13.67.64.64,0,0,1-.22.57,1.69,1.69,0,0,1-.7.32,6.91,6.91,0,0,1-1,.18c-.4,0-.82.09-1.23.15s-.84.16-1.25.27a3.47,3.47,0,0,0-1.12.51,2.68,2.68,0,0,0-.81.92,3,3,0,0,0-.31,1.45A3.31,3.31,0,0,0,63,14.58a2.69,2.69,0,0,0,.76,1,3.28,3.28,0,0,0,1.12.56,5,5,0,0,0,1.37.18A6.21,6.21,0,0,0,68.08,16a3.74,3.74,0,0,0,1.48-.65c.08.35.11.62.4.68h2.92C72.38,15.75,72.35,14.33,72.35,13.7Zm-3-1.65a4,4,0,0,1,0,.61,1.92,1.92,0,0,1-.25.73,1.75,1.75,0,0,1-.62.62,2.41,2.41,0,0,1-1.22.25,4.21,4.21,0,0,1-.62,0,1.46,1.46,0,0,1-.51-.19.94.94,0,0,1-.34-.37,1.2,1.2,0,0,1-.12-.57,1.31,1.31,0,0,1,.12-.6,1.21,1.21,0,0,1,.33-.38,1.56,1.56,0,0,1,.5-.25,4.44,4.44,0,0,1,.6-.16l.66-.09.64-.1a4.74,4.74,0,0,0,.57-.15,1.26,1.26,0,0,0,.31-.14ZM44.83,3.16h-3V5.78H40.19v2h1.68v5.84a2.73,2.73,0,0,0,.26,1.27,1.91,1.91,0,0,0,.73.76,2.83,2.83,0,0,0,1,.35,8,8,0,0,0,1.23.09c.26,0,.55,0,.84,0a2.73,2.73,0,0,0,.59-.09V13.84a4.69,4.69,0,0,1-.67.1,1.27,1.27,0,0,1-.87-.21,1.23,1.23,0,0,1-.2-.86v-5h2v-2h-2ZM48.27,16h3V5.78h-3Zm0-11.29h3V2.21h-3Zm11.51,1-2.14,5.74L55.41,5.78H52.26l2.39,7h2.53l-1,2.8c-.28.76-.64.93-1,1a3.73,3.73,0,0,1-2-.47v2.47a4.21,4.21,0,0,0,2.09.47,4.1,4.1,0,0,0,2.27-.54,3.55,3.55,0,0,0,1.29-1.8L62.85,5.78Z" fill="#3c6eff"/><path d="M95.62,7.12l-.16-.45A9.94,9.94,0,0,0,88.66.34L88.18.23A11,11,0,0,0,87.75,3a4.78,4.78,0,0,0,4.78,4.77A10.61,10.61,0,0,0,95.62,7.12Z" fill="#f45c46"/><path d="M78.14,3.94l.3-.39A9.93,9.93,0,0,1,86.06,0c.33,0,.66,0,1,.05l.5.06a12,12,0,0,1-.73,3.07,4.79,4.79,0,0,1-4.33,2.76h0a4.72,4.72,0,0,1-2-.45A13,13,0,0,1,78.14,3.94Z" fill="#fdb826"/><path d="M77.24,14.6,77,14.16a10,10,0,0,1,.47-9.28l.29-.43a9.2,9.2,0,0,1,2.45,2,4.77,4.77,0,0,1-.59,6.73A13.81,13.81,0,0,1,77.24,14.6Z" fill="#44b849"/><path d="M86.58,19.91l-.54,0a10,10,0,0,1-8.21-4.35l-.29-.43a9.45,9.45,0,0,1,2.84-1.41,5.21,5.21,0,0,1,1.24-.16,4.79,4.79,0,0,1,4.61,3.54A13.37,13.37,0,0,1,86.58,19.91Z" fill="#2d9fff"/><path d="M95.29,13.73l-.21.46a10,10,0,0,1-7.41,5.61l-.46.06a10.94,10.94,0,0,1-.12-3.15,4.73,4.73,0,0,1,5.53-3.87A12.89,12.89,0,0,1,95.29,13.73Z" fill="#b364ff"/></svg>