<svg xmlns="http://www.w3.org/2000/svg" width="20" height="20" viewBox="0 0 20 20"><path d="M0,10A9.83,9.83,0,0,1,1.34,5,9.93,9.93,0,0,1,5,1.34,9.83,9.83,0,0,1,10,0a9.83,9.83,0,0,1,5,1.34A9.93,9.93,0,0,1,18.66,5,9.83,9.83,0,0,1,20,10a9.83,9.83,0,0,1-1.34,5A9.93,9.93,0,0,1,15,18.66,9.83,9.83,0,0,1,10,20a9.83,9.83,0,0,1-5-1.34A9.93,9.93,0,0,1,1.34,15,9.83,9.83,0,0,1,0,10Zm1.66,0a8.07,8.07,0,0,0,2.1,5.5,11.4,11.4,0,0,1,3-3.58,10,10,0,0,1,4.06-2.14c-.2-.47-.39-.89-.58-1.26a24.37,24.37,0,0,1-7.44,1.1l-1.16,0a1.56,1.56,0,0,1,0,.2A1.56,1.56,0,0,0,1.66,10Zm.26-2.06c.29,0,.73,0,1.3,0a21.93,21.93,0,0,0,6.34-.9,20.25,20.25,0,0,0-3.34-4.5A8,8,0,0,0,3.51,4.8,8.64,8.64,0,0,0,1.92,7.94Zm3,8.64a8.17,8.17,0,0,0,8,1.2,29.69,29.69,0,0,0-1.56-6.62,8.56,8.56,0,0,0-3.71,2A11.25,11.25,0,0,0,4.9,16.58ZM8,1.94a21.37,21.37,0,0,1,3.26,4.54,10,10,0,0,0,4.1-2.9A8.11,8.11,0,0,0,10,1.66,7.54,7.54,0,0,0,8,1.94Zm4,6c.2.43.43,1,.68,1.62,1-.09,2.06-.14,3.22-.14q1.25,0,2.46.06a8,8,0,0,0-2-4.84A9.94,9.94,0,0,1,11.94,7.9Zm1.18,3A28.66,28.66,0,0,1,14.5,17a8.38,8.38,0,0,0,2.58-2.62,8,8,0,0,0,1.2-3.46c-1-.07-1.86-.1-2.66-.1S14.05,10.85,13.12,10.92Z" fill="#aaa5a0"/></svg>