<svg xmlns="http://www.w3.org/2000/svg" xmlns:xlink="http://www.w3.org/1999/xlink" width="221.19" height="48" viewBox="0 0 221.19 48"><defs><radialGradient id="a" cx="216.72" cy="3.45" r="137.47" gradientUnits="userSpaceOnUse"><stop offset="0" stop-color="#f5c772"/><stop offset="0.18" stop-color="#c89251"/><stop offset="0.35" stop-color="#a26737"/><stop offset="0.48" stop-color="#8b4d26"/><stop offset="0.56" stop-color="#834320"/><stop offset="1"/></radialGradient><radialGradient id="b" cx="22.2" cy="24" r="20.79" gradientUnits="userSpaceOnUse"><stop offset="0.44" stop-color="#ffff60"/><stop offset="0.68" stop-color="#ffce39"/><stop offset="1" stop-color="#df973b"/></radialGradient><radialGradient id="c" cx="22.08" cy="37.31" r="7.83" gradientUnits="userSpaceOnUse"><stop offset="0" stop-color="#e59c39"/><stop offset="1" stop-color="#956531"/></radialGradient></defs><g style="isolation:isolate"><path d="M80.47,12.22H79.08a8.19,8.19,0,0,0-4.23,1,5.53,5.53,0,0,0-2.14,2.55V12.48H60.86V11.7a3.19,3.19,0,0,1,1-2.62,4.55,4.55,0,0,1,2.95-.85l.68,0c.24,0,.51.06.8.11V3.46a10,10,0,0,0-1.06-.15c-.42,0-.81-.07-1.15-.07a10.51,10.51,0,0,0-4.73,1,7.28,7.28,0,0,0-3.1,2.89,8.84,8.84,0,0,0-1.11,4.57v.78H51v5.08h4.16V36.08h5.68V17.56h6.51V36.08h5.68V22.94a5.68,5.68,0,0,1,1.48-4.19,5.21,5.21,0,0,1,3.9-1.5h2ZM100,15.39a10.55,10.55,0,0,0-3.58-2.52A12.31,12.31,0,0,0,91.52,12a11.37,11.37,0,0,0-6,1.61,11.57,11.57,0,0,0-4.2,4.36,12.66,12.66,0,0,0-1.54,6.31,12.84,12.84,0,0,0,1.52,6.24A11.35,11.35,0,0,0,85.58,35,12.07,12.07,0,0,0,92,36.6a12.71,12.71,0,0,0,4.45-.74,10.78,10.78,0,0,0,3.49-2,8,8,0,0,0,2.17-3l-4.6-2.25a5.92,5.92,0,0,1-2.15,2.21,6.28,6.28,0,0,1-3.31.82,6.46,6.46,0,0,1-3.45-.91,5.75,5.75,0,0,1-2.26-2.58,6.77,6.77,0,0,1-.56-2.23h17a4.4,4.4,0,0,0,.24-1.13q.06-.65.06-1.26a12.5,12.5,0,0,0-.78-4.45A11.31,11.31,0,0,0,100,15.39ZM85.85,21.55a6.79,6.79,0,0,1,.4-1.41,5.54,5.54,0,0,1,2.1-2.6,5.7,5.7,0,0,1,3.17-.89,5.49,5.49,0,0,1,3.19.91A5.12,5.12,0,0,1,96.62,20a5.79,5.79,0,0,1,.32,1.52Zm38.68-6.16A10.45,10.45,0,0,0,121,12.87a12.31,12.31,0,0,0-4.88-.91,11.33,11.33,0,0,0-6,1.61,11.6,11.6,0,0,0-4.21,4.36,12.66,12.66,0,0,0-1.54,6.31,13,13,0,0,0,1.52,6.24A11.42,11.42,0,0,0,110.13,35a12.1,12.1,0,0,0,6.38,1.65,12.65,12.65,0,0,0,4.44-.74,10.67,10.67,0,0,0,3.49-2,7.85,7.85,0,0,0,2.17-3L122,28.58a6,6,0,0,1-2.14,2.21,6.31,6.31,0,0,1-3.32.82,6.49,6.49,0,0,1-3.45-.91,5.75,5.75,0,0,1-2.26-2.58,7.31,7.31,0,0,1-.56-2.23h17a4.4,4.4,0,0,0,.24-1.13c0-.43.07-.85.07-1.26a12.5,12.5,0,0,0-.78-4.45A11.34,11.34,0,0,0,124.53,15.39ZM110.4,21.55a7.47,7.47,0,0,1,.4-1.41,5.54,5.54,0,0,1,2.1-2.6,5.72,5.72,0,0,1,3.17-.89,5.47,5.47,0,0,1,3.19.91A5.12,5.12,0,0,1,121.17,20a5.41,5.41,0,0,1,.32,1.52Zm37.81-7.94a11.29,11.29,0,0,0-6-1.65A10.42,10.42,0,0,0,137.37,13a8.44,8.44,0,0,0-2.78,2.26V12.48h-5.33V44.76h5.68v-11a8.42,8.42,0,0,0,2.49,1.8,10.86,10.86,0,0,0,4.71,1A11.55,11.55,0,0,0,148.26,35a11.7,11.7,0,0,0,4.25-4.44,12.68,12.68,0,0,0,1.56-6.25A12.42,12.42,0,0,0,152.49,18,12.21,12.21,0,0,0,148.21,13.61ZM147.32,28A6.21,6.21,0,0,1,145,30.48a6.59,6.59,0,0,1-3.47.92,6.33,6.33,0,0,1-3.36-.92A6.23,6.23,0,0,1,135.79,28a7.73,7.73,0,0,1-.85-3.69,7.72,7.72,0,0,1,.85-3.66,6.25,6.25,0,0,1,2.34-2.54,6.32,6.32,0,0,1,3.36-.91,6.51,6.51,0,0,1,3.47.93,6.43,6.43,0,0,1,2.36,2.52,7.55,7.55,0,0,1,.85,3.66A7.73,7.73,0,0,1,147.32,28Zm8.48-19.5h5.69V3.76H155.8Zm0,27.61h5.69V12.48H155.8Zm30-23.6h-7.07l-8.93,9.36V4h-5.69V36.08h5.69v-7.2l3.05-3.28,6.62,10.48H186L177.1,22Zm17.54,2.91a10.36,10.36,0,0,0-3.58-2.52A12.31,12.31,0,0,0,194.9,12a11.36,11.36,0,0,0-6,1.61,11.6,11.6,0,0,0-4.21,4.36,12.76,12.76,0,0,0-1.54,6.31,13,13,0,0,0,1.52,6.24A11.42,11.42,0,0,0,189,35a12.1,12.1,0,0,0,6.38,1.65,12.61,12.61,0,0,0,4.44-.74,10.83,10.83,0,0,0,3.5-2,7.93,7.93,0,0,0,2.16-3l-4.59-2.25a6,6,0,0,1-2.15,2.21,6.31,6.31,0,0,1-3.32.82,6.49,6.49,0,0,1-3.45-.91,5.73,5.73,0,0,1-2.25-2.58,7,7,0,0,1-.57-2.23h17a4.9,4.9,0,0,0,.23-1.13,10.88,10.88,0,0,0,.07-1.26,12.5,12.5,0,0,0-.78-4.45A11.17,11.17,0,0,0,203.36,15.39Zm-14.13,6.16a7.47,7.47,0,0,1,.4-1.41,5.5,5.5,0,0,1,2.11-2.6,5.66,5.66,0,0,1,3.16-.89,5.45,5.45,0,0,1,3.19.91A5.12,5.12,0,0,1,200,20a5.41,5.41,0,0,1,.32,1.52Zm30.57-9.33a8.19,8.19,0,0,0-4.23,1,5.53,5.53,0,0,0-2.14,2.55V12.48h-5.34v23.6h5.68V22.94a5.68,5.68,0,0,1,1.48-4.19,5.21,5.21,0,0,1,3.9-1.5h2v-5Z" fill="url(#a)"/><path d="M22.2.36h0A17.52,17.52,0,0,0,4.73,17.83V30.17A17.52,17.52,0,0,0,22.2,47.64h0A17.53,17.53,0,0,0,39.68,30.17V17.83A17.53,17.53,0,0,0,22.2.36Z" fill="url(#b)"/><path d="M22.2,48A17.85,17.85,0,0,1,4.37,30.17V17.83a17.84,17.84,0,0,1,35.67,0V30.17A17.85,17.85,0,0,1,22.2,48ZM22.2.72A17.14,17.14,0,0,0,5.09,17.83V30.17A17.14,17.14,0,0,0,22.2,47.28h0A17.14,17.14,0,0,0,39.32,30.17V17.83A17.14,17.14,0,0,0,22.2.72Z" fill="#4e2400"/><path d="M25.27,16.84a23.53,23.53,0,0,1,8.85-4.37,17,17,0,0,1,9.81.77A18.11,18.11,0,0,1,35,21.16a14,14,0,0,1-11.76-.63C21.23,19.4,24.25,17.6,25.27,16.84Z" fill="#ffdc19"/><path d="M19.14,16.84a23.57,23.57,0,0,0-8.86-4.37,17,17,0,0,0-9.81.77A18.18,18.18,0,0,0,9.4,21.16a14,14,0,0,0,11.75-.63C23.18,19.4,20.15,17.6,19.14,16.84Z" fill="#ffdc19"/><path d="M35.24,12.94c.33,0,.72.11.85.42s-.08.65-.29.91a3.8,3.8,0,0,1-1.69,1c1.2-.35,2.74-.23,3.34.87a2.8,2.8,0,0,1-.12,2.44,6.78,6.78,0,0,1-1.46,2.06c3.5-1.21,5.94-4.32,8.17-7.27a14.07,14.07,0,0,0-6.73-1.26,15.9,15.9,0,0,0-6.74,1.57A9.32,9.32,0,0,1,35.24,12.94Z" fill="#f9cc13" opacity="0.5" style="mix-blend-mode:multiply"/><path d="M9.16,12.94c-.33,0-.72.11-.85.42s.08.65.3.91a3.71,3.71,0,0,0,1.68,1C9.1,14.9,7.55,15,7,16.12a2.8,2.8,0,0,0,.13,2.44,6.58,6.58,0,0,0,1.45,2.06C5,19.41,2.6,16.3.36,13.35a14.1,14.1,0,0,1,6.73-1.26,15.94,15.94,0,0,1,6.75,1.57A9.37,9.37,0,0,0,9.16,12.94Z" fill="#f9cc13" opacity="0.5" style="mix-blend-mode:multiply"/><path d="M24.7,25.87a20,20,0,0,0,3.38,3.84c3.45,2.93,8.2,4,12.72,3.73a22.89,22.89,0,0,0-7.14-11.7,32,32,0,0,1-5.86.43,12.89,12.89,0,0,1-2.95-.48c-.87-.26-1.68-.87-2.51-1.09A5.6,5.6,0,0,0,23,22.93,15.39,15.39,0,0,0,24.7,25.87Z" fill="#f9cc13"/><path d="M19.7,25.87a19.93,19.93,0,0,1-3.37,3.84c-3.46,2.93-8.21,4-12.73,3.73a23,23,0,0,1,7.15-11.7,31.88,31.88,0,0,0,5.85.43,12.8,12.8,0,0,0,2.95-.48c.87-.26,1.68-.87,2.52-1.09a5.92,5.92,0,0,1-.66,2.33A15.44,15.44,0,0,1,19.7,25.87Z" fill="#f9cc13"/><path d="M30.61,29.25a2.25,2.25,0,0,0,1.6-.16,1.71,1.71,0,0,0,.52-2,5,5,0,0,0-1.37-1.78l2.44,1.08a1.93,1.93,0,0,0,1.23.26,1.38,1.38,0,0,0,1-1.34,4,4,0,0,0-.46-1.71,21,21,0,0,1,5.2,9.76c0,.08-3.06.1-3.34.08a17,17,0,0,1-9.46-3.83,10.1,10.1,0,0,1-2.6-2.74A14.71,14.71,0,0,0,30.61,29.25Z" fill="#f9cc13" opacity="0.5" style="mix-blend-mode:multiply"/><path d="M13.79,29.25a2.26,2.26,0,0,1-1.6-.16,1.71,1.71,0,0,1-.52-2,5.07,5.07,0,0,1,1.38-1.78l-2.44,1.08a2,2,0,0,1-1.24.26,1.37,1.37,0,0,1-.95-1.34,4.14,4.14,0,0,1,.45-1.71,21.12,21.12,0,0,0-5.2,9.76c0,.08,3.06.1,3.34.08a17.19,17.19,0,0,0,3.35-.61,17.26,17.26,0,0,0,6.11-3.22,10,10,0,0,0,2.6-2.74A14.64,14.64,0,0,1,13.79,29.25Z" fill="#f9cc13" opacity="0.5" style="mix-blend-mode:multiply"/><path d="M26.53,26.14a7.81,7.81,0,0,0,4.53,2.1.78.78,0,0,0,.6-.12c.32-.26.12-.79-.14-1.11-1.81-2.26-5.19-3-7.59-4.43A8.77,8.77,0,0,0,26.53,26.14Z" fill="#f9cc13" opacity="0.5" style="mix-blend-mode:multiply"/><path d="M17.88,26.14a7.87,7.87,0,0,1-4.54,2.1.8.8,0,0,1-.6-.12c-.32-.26-.12-.79.14-1.11,1.81-2.26,5.19-3,7.6-4.43A8.77,8.77,0,0,1,17.88,26.14Z" fill="#f9cc13" opacity="0.5" style="mix-blend-mode:multiply"/><path d="M33.58,25.58h0a.92.92,0,0,0,1.11-1.33A4.38,4.38,0,0,0,33.81,23a.29.29,0,0,0-.16,0,9.66,9.66,0,0,1-3.28.64c.32,0,1.29.88,1.63,1.07A7.71,7.71,0,0,0,33.58,25.58Z" fill="#f9cc13" opacity="0.5" style="mix-blend-mode:multiply"/><path d="M10.82,25.58h0a1,1,0,0,1-1-.26,1,1,0,0,1-.08-1.07A4.38,4.38,0,0,1,10.6,23a.26.26,0,0,1,.15,0,9.72,9.72,0,0,0,3.29.64c-.32,0-1.3.88-1.63,1.07A7.78,7.78,0,0,1,10.82,25.58Z" fill="#f9cc13" opacity="0.5" style="mix-blend-mode:multiply"/><path d="M31.71,13.75a5.59,5.59,0,0,1,2.41-.43c.35,0,.76.18.81.53s-.44.66-.84.76c-1.43.39-2.86.74-4.27,1.16s-2.55,1-3.83,1.41c.37-.78,1.6-1.32,2.31-1.75A20,20,0,0,1,31.71,13.75Z" fill="#fff" opacity="0.4"/><path d="M12.69,13.75a5.57,5.57,0,0,0-2.41-.43c-.35,0-.76.18-.8.53s.44.66.84.76c1.42.39,2.86.74,4.27,1.16s2.54,1,3.82,1.41c-.37-.78-1.59-1.32-2.31-1.75A19.63,19.63,0,0,0,12.69,13.75Z" fill="#fff" opacity="0.4"/><path d="M34.76,16.23a2,2,0,0,1,1.1-.07,1.47,1.47,0,0,1,.76,1.64,3.59,3.59,0,0,1-2.13,2.56,7.8,7.8,0,0,1-3.39.54,19.7,19.7,0,0,1-4.77-.69c-1.15-.31-2.14-.6-.61-1.22A81.24,81.24,0,0,1,34.76,16.23Z" fill="#fff" opacity="0.4"/><path d="M9.64,16.23a1.94,1.94,0,0,0-1.09-.07,1.45,1.45,0,0,0-.76,1.64,3.56,3.56,0,0,0,2.12,2.56,7.83,7.83,0,0,0,3.4.54,19.62,19.62,0,0,0,4.76-.69c1.15-.31,2.14-.6.62-1.22A81.41,81.41,0,0,0,9.64,16.23Z" fill="#fff" opacity="0.4"/><path d="M22.2,19.66a21.37,21.37,0,0,1,6.58-5.49l-1.47-1a1.39,1.39,0,0,1-.35-.29,1.33,1.33,0,0,1-.25-.64,4.15,4.15,0,0,1,.45-2.72,1.15,1.15,0,0,1,.62-.59c.34-.08.68.13,1,.19a1.42,1.42,0,0,0,1.44-1.68,2.07,2.07,0,0,0-1.9-1.5,1.45,1.45,0,0,0-.77.13c-.75.38-.73,1.43-.6,2.26a4.91,4.91,0,0,0-1.9,3.63,6.28,6.28,0,0,0-2.88-.41,6.26,6.26,0,0,0-2.87.41,4.94,4.94,0,0,0-1.9-3.63c.13-.83.14-1.88-.6-2.26a1.48,1.48,0,0,0-.78-.13,2.06,2.06,0,0,0-1.89,1.5A1.42,1.42,0,0,0,15.59,9.1c.35-.06.69-.27,1-.19a1.1,1.1,0,0,1,.61.59,4.16,4.16,0,0,1,.46,2.72,1.2,1.2,0,0,1-.6.93l-1.47,1A21.33,21.33,0,0,1,22.2,19.66Z" fill="#c67900"/><path d="M22.29,20.72c2,8.64,9.59,10.86,10,11.77.22.54-.07,3-2.74,5.85a11.61,11.61,0,0,1-7.3,3.56,11.63,11.63,0,0,1-7.3-3.56c-2.67-2.82-3-5.31-2.74-5.85.36-.91,7.91-3.13,10-11.77" fill="#733708"/><path d="M29.54,6.61a1.81,1.81,0,0,1-.08,1.08,1,1,0,0,1-.85.58c-.34,0-.67-.23-1-.11a.92.92,0,0,0-.41.44,15.06,15.06,0,0,0-1.06,2.22,2,2,0,0,0,0,1.93c.13.16.31.28.43.45a1.14,1.14,0,0,1-.36,1.45,4.91,4.91,0,0,1-1.48.7,6.52,6.52,0,0,0-2.56,1.81,6.45,6.45,0,0,0-2.56-1.81,4.91,4.91,0,0,1-1.48-.7,1.15,1.15,0,0,1-.35-1.45,5.89,5.89,0,0,1,.42-.45,2,2,0,0,0,0-1.93,15,15,0,0,0-1-2.22.92.92,0,0,0-.41-.44c-.31-.12-.65.1-1,.11a1,1,0,0,1-.86-.58,1.73,1.73,0,0,1-.07-1.08,1.38,1.38,0,0,0-.62,1.64,1.39,1.39,0,0,0,1.53.85A1.28,1.28,0,0,1,16.52,9a.75.75,0,0,1,.35.31,4.33,4.33,0,0,1,.84,2.15,1.55,1.55,0,0,1-.08.77c-.34.82-1.67,1-1.85,1.83A25.13,25.13,0,0,1,22.2,19.9a25.13,25.13,0,0,1,6.42-5.83c-.17-.87-1.51-1-1.85-1.83a1.54,1.54,0,0,1-.07-.77,4.22,4.22,0,0,1,.83-2.15A.8.8,0,0,1,27.88,9a1.27,1.27,0,0,1,.74.09,1.34,1.34,0,0,0,.92-2.49ZM24.07,24.85a4.2,4.2,0,0,1-1.21-2.49l-.51-2.22h-.29l-.51,2.22a4.21,4.21,0,0,1-1.22,2.49,9.18,9.18,0,0,0,1.87.7A8.76,8.76,0,0,0,24.07,24.85ZM19,27.31a2.67,2.67,0,0,1-1,1.05s-.08.05-.09.1a.21.21,0,0,0,0,.1,7.66,7.66,0,0,0,4.33,2.88,7.63,7.63,0,0,0,4.33-2.88.11.11,0,0,0,0-.1c0-.05-.05-.07-.09-.1a2.58,2.58,0,0,1-1-1.05,2.65,2.65,0,0,1-1.61,1.53,5.17,5.17,0,0,1-1.65.3,5.06,5.06,0,0,1-1.64-.3A2.6,2.6,0,0,1,19,27.31Zm9.34,4.46a12.32,12.32,0,0,1-6.09,2.46,12.36,12.36,0,0,1-6.09-2.46A2.85,2.85,0,0,1,15,30.48a4.47,4.47,0,0,0-1.14.79,11.9,11.9,0,0,0,7.57,4.93,3.27,3.27,0,0,0,1.46,0,11.9,11.9,0,0,0,7.57-4.93,4.31,4.31,0,0,0-1.14-.79A2.79,2.79,0,0,1,28.29,31.77Z" fill="#874f15"/><path d="M22.2,12.43a9.59,9.59,0,0,1,4,.92,1.87,1.87,0,0,1-.72-1.8A4.64,4.64,0,0,1,26.3,9.7a8.21,8.21,0,0,0,1-1.78,3.32,3.32,0,0,1,.4-1,2.21,2.21,0,0,1,1.87-.51A4.29,4.29,0,0,0,28.37,6a1.17,1.17,0,0,0-1,.31c-.47.49-.23,1.32-.5,2a4,4,0,0,1-.71.93,3.92,3.92,0,0,0-.9,2.27.4.4,0,0,1-.06.26c-.11.14-.34.08-.52,0a5,5,0,0,0-2.45-.29,5,5,0,0,0-2.45.29c-.17.06-.4.12-.52,0a.58.58,0,0,1-.06-.26,3.79,3.79,0,0,0-.9-2.27,4,4,0,0,1-.71-.93c-.26-.63,0-1.46-.49-1.95A1.19,1.19,0,0,0,16,6a4.23,4.23,0,0,0-1.18.45,2.19,2.19,0,0,1,1.86.51,3.08,3.08,0,0,1,.4,1,8.66,8.66,0,0,0,1,1.78,4.64,4.64,0,0,1,.81,1.85,1.83,1.83,0,0,1-.72,1.8A9.66,9.66,0,0,1,22.2,12.43Z" fill="#f9ad00"/><path d="M22.2,26.2a2.39,2.39,0,0,0,1-.37.64.64,0,0,1,.4-.18.53.53,0,0,1,.33.2,2.58,2.58,0,0,1,.53.77.93.93,0,0,1,.09.65.92.92,0,0,1-.6.48,5.45,5.45,0,0,1-1.72.44,5.52,5.52,0,0,1-1.72-.44.9.9,0,0,1-.59-.48.83.83,0,0,1,.09-.65,2.75,2.75,0,0,1,.52-.77.52.52,0,0,1,.34-.2.64.64,0,0,1,.39.18A2.45,2.45,0,0,0,22.2,26.2Z" fill="#f9cc13"/><path d="M21.76,31.71a1.91,1.91,0,0,0,.89,0l.62-.17a5.89,5.89,0,0,0,2.7-1.8,1,1,0,0,1,.35-.31c.41-.16.85.29,1.07.56a.87.87,0,0,1,.16.26c.21.56-.33.94-.79,1.19l-1.18.63a8.49,8.49,0,0,1-1.26.59,19.8,19.8,0,0,1-2,.39H22.2l-.84-.13a8.07,8.07,0,0,1-1.28-.26,8.49,8.49,0,0,1-1.26-.59L17.4,31.3a1.14,1.14,0,0,1-.46-.41c-.3-.48,0-.82.26-1.1s.57-.49.88-.36a1.06,1.06,0,0,1,.36.31,5.79,5.79,0,0,0,2.7,1.8Z" fill="#f9cc13"/><path d="M22.2,26.56a.85.85,0,0,0,.55-.13.8.8,0,0,1,.69-.16.65.65,0,0,1,.28.24.69.69,0,0,1,.17.3c.07.3-.26.54-.56.63a2.88,2.88,0,0,1-1.13.14,2.91,2.91,0,0,1-1.13-.14c-.29-.09-.62-.33-.56-.63a.69.69,0,0,1,.17-.3.71.71,0,0,1,.28-.24.8.8,0,0,1,.69.16A.86.86,0,0,0,22.2,26.56Z" fill="#ffdc19"/><path d="M22.2,32.19a5.5,5.5,0,0,0,2.08-.69,7.2,7.2,0,0,0,1.39-1.06c.28-.28.62-.6,1-.51a.57.57,0,0,1,.29.89.94.94,0,0,1-.33.23l-1.5.78a6.1,6.1,0,0,1-5.86,0l-1.49-.78a1,1,0,0,1-.34-.23.58.58,0,0,1,.29-.89c.38-.09.72.23,1,.51a7.26,7.26,0,0,0,1.4,1.06A5.51,5.51,0,0,0,22.2,32.19Z" fill="#ffdc19"/><path d="M22.2,37.45a10.87,10.87,0,0,0,4.92-1.75c.76-.51,1.45-1.12,2.25-1.59a.78.78,0,0,1,.44-.15c1.76,0-1.39,3.45-1.83,3.76a10.13,10.13,0,0,1-11.56,0C16,37.41,12.84,34,14.59,34a.78.78,0,0,1,.44.15c.81.47,1.49,1.08,2.26,1.59A10.79,10.79,0,0,0,22.2,37.45Z" fill="url(#c)"/><path d="M36.6,12.88a18.58,18.58,0,0,1,6.13.33,11.16,11.16,0,0,1-2.52.12c-1.19,0-2.3.48-3.44.56A.85.85,0,0,0,36.6,12.88Z" fill="#ffdc19"/><path d="M7.81,12.88a18.57,18.57,0,0,0-6.13.33,11.07,11.07,0,0,0,2.51.12c1.19,0,2.31.48,3.44.56A.87.87,0,0,1,7.81,12.88Z" fill="#ffdc19"/><path d="M39.61,31.59a49.29,49.29,0,0,0-3.19-5.72c.44.68-1.33,1.22-1.7,1.15.51.73,1.75,1.29,2.43,2C38,29.84,38.76,30.76,39.61,31.59Z" fill="#ffdc19"/><path d="M4.79,31.59A50.82,50.82,0,0,1,8,25.87c-.44.68,1.34,1.22,1.71,1.15-.51.73-1.76,1.29-2.44,2C6.41,29.84,5.65,30.76,4.79,31.59Z" fill="#ffdc19"/><path d="M37.72,15.47a3.39,3.39,0,0,0,2.72,0A8.35,8.35,0,0,0,42.79,14a4.28,4.28,0,0,1-.94,1.34c-1.1,1.2-2.38,2.78-3.94,3.39-.11-.42.37-1.07.39-1.58A2.42,2.42,0,0,0,37.72,15.47Z" fill="#ffdc19"/><path d="M6.68,15.47a3.38,3.38,0,0,1-2.72,0A8.3,8.3,0,0,1,1.62,14a4.25,4.25,0,0,0,.93,1.34c1.1,1.2,2.38,2.78,4,3.39.1-.42-.38-1.07-.39-1.58A2.46,2.46,0,0,1,6.68,15.47Z" fill="#ffdc19"/><path d="M34.29,32.09a19.58,19.58,0,0,0,2.86.58,12.76,12.76,0,0,0,2.39.17,29.69,29.69,0,0,1-3-2.42c-1.76,1.67-5.17,0-7-.81A12.44,12.44,0,0,0,34.29,32.09Z" fill="#ffdc19"/><path d="M10.12,32.09a20.13,20.13,0,0,1-2.86.58,12.76,12.76,0,0,1-2.39.17,28.46,28.46,0,0,0,3-2.42c1.77,1.67,5.18,0,7-.81A12.47,12.47,0,0,1,10.12,32.09Z" fill="#ffdc19"/><path d="M44.33,13.12,44,13a12.34,12.34,0,0,0-1.21-.42,19.36,19.36,0,0,0-3.2-.67,19.06,19.06,0,0,0-6.52.4,20.22,20.22,0,0,0-4.2,1.5,4.73,4.73,0,0,0-.37-.4,9.19,9.19,0,0,0-.75-.65A7.81,7.81,0,0,0,27,12.2a.25.25,0,0,0,0-.08,3.75,3.75,0,0,1-.05-.47,3.45,3.45,0,0,1,.11-1,4.08,4.08,0,0,1,.37-.89,6.9,6.9,0,0,1,.47-.6l.06,0a2.11,2.11,0,0,0,1.28.21,1.73,1.73,0,0,0,1-.54,1.67,1.67,0,0,0,.4-1.34,2.27,2.27,0,0,0-1.28-1.73A2.12,2.12,0,0,0,27.11,6a1.64,1.64,0,0,0-.46,1.45,2.62,2.62,0,0,0,.18.68h0a4.81,4.81,0,0,0-.48.42,5.19,5.19,0,0,0-.79,1.07,5.25,5.25,0,0,0-.5,1.2,5.54,5.54,0,0,0-.11.56,10,10,0,0,0-2.73-.23,9.92,9.92,0,0,0-2.72.23,5.59,5.59,0,0,0-.12-.56,5.22,5.22,0,0,0-.49-1.2,5.59,5.59,0,0,0-.79-1.07,4,4,0,0,0-.49-.42h0a2.61,2.61,0,0,0,.17-.68A1.63,1.63,0,0,0,17.3,6a2.12,2.12,0,0,0-2.22-.16A2.25,2.25,0,0,0,13.8,7.57a1.7,1.7,0,0,0,.39,1.34,1.76,1.76,0,0,0,1,.54,2.13,2.13,0,0,0,1.29-.21l.06,0a5.3,5.3,0,0,1,.46.6,3.64,3.64,0,0,1,.37.89,3.12,3.12,0,0,1,.11,1,2.5,2.5,0,0,1,0,.47s0,.06,0,.08a8.87,8.87,0,0,0-.81.55,7.89,7.89,0,0,0-.76.65c-.11.12-.25.26-.37.4a19.93,19.93,0,0,0-4.19-1.5,19.14,19.14,0,0,0-6.53-.4,19.36,19.36,0,0,0-3.2.67c-.41.12-.81.26-1.21.42l-.29.13-.07,0c.07.13.14.25.22.37a23.44,23.44,0,0,0,2,2.85,18.37,18.37,0,0,0,4.24,3.82A15.45,15.45,0,0,0,10.05,22a2.25,2.25,0,0,0-.24.21c-.21.19-.41.39-.61.59-.39.39-.77.81-1.13,1.23A22.07,22.07,0,0,0,4.81,29.1a17.9,17.9,0,0,0-1.38,4.27c0,.13-.05.26-.07.39l.36,0a24,24,0,0,0,5.15-.26,15.24,15.24,0,0,0,2.89-.78,7.22,7.22,0,0,0,.11,1.15c.78,5.19,6.37,8.51,10.33,8.51s9.55-3.32,10.34-8.51a10.75,10.75,0,0,0,.11-1.15,15.14,15.14,0,0,0,2.88.78,24,24,0,0,0,5.15.26l.36,0c0-.13,0-.26-.07-.39A17.44,17.44,0,0,0,39.6,29.1,22.11,22.11,0,0,0,36.33,24c-.36-.42-.73-.84-1.12-1.23l-.62-.59a1.21,1.21,0,0,0-.24-.21A15.51,15.51,0,0,0,38,20.19a18.79,18.79,0,0,0,4.24-3.82,24.61,24.61,0,0,0,2-2.85l.21-.37ZM27.42,6.63a1,1,0,0,1,.68-.35,1.59,1.59,0,0,1,.78.1,1.65,1.65,0,0,1,1,1,1.14,1.14,0,0,1-.08.92,1,1,0,0,1-.61.44,1.28,1.28,0,0,1-.9-.09,2,2,0,0,1-.43-.28c-.16-.13-.34-.23-.49-.37h0V8s0-.07-.05-.07a2.87,2.87,0,0,1-.05-.31A1.65,1.65,0,0,1,27.42,6.63ZM25.5,11a5,5,0,0,1,.43-1.13,4.61,4.61,0,0,1,.7-1c.12-.14.25-.27.38-.4a1.36,1.36,0,0,0,.24.24.45.45,0,0,0,.11.13l.13.12a2.78,2.78,0,0,0-.5.53,3.67,3.67,0,0,0-.53,1,4,4,0,0,0-.17,1.13c0,.08,0,.15,0,.23l-.24-.11c-.22-.09-.44-.17-.67-.24A4.82,4.82,0,0,1,25.5,11Zm-9-2.6a2,2,0,0,1-.44.28,1.25,1.25,0,0,1-.89.09,1.07,1.07,0,0,1-.62-.44,1.18,1.18,0,0,1-.08-.92,1.64,1.64,0,0,1,1-1,1.57,1.57,0,0,1,.77-.1,1,1,0,0,1,.68.35,1.58,1.58,0,0,1,.14,1,2.84,2.84,0,0,1-.06.31A.06.06,0,0,0,17,8V8h0C16.87,8.16,16.69,8.26,16.54,8.39Zm.87,1.09A2.73,2.73,0,0,0,16.92,9l.13-.12a.69.69,0,0,0,.11-.13,1.31,1.31,0,0,0,.23-.24l.39.4a4.94,4.94,0,0,1,.69,1A5,5,0,0,1,18.91,11a4.76,4.76,0,0,1,.1.52c-.22.07-.45.15-.66.24l-.25.11a1.77,1.77,0,0,0,0-.23,3.37,3.37,0,0,0-.17-1.13A3.42,3.42,0,0,0,17.41,9.48Zm-.76,4.59a7.56,7.56,0,0,1,.65-.56,7.24,7.24,0,0,1,3.15-1.3c.58-.1,1.16-.15,1.75-.2s1.17.1,1.76.2a7.2,7.2,0,0,1,3.14,1.3,6.3,6.3,0,0,1,.65.56,2.4,2.4,0,0,1,.21.23l-.66.39a20.46,20.46,0,0,0-4.44,3.75l-.66.79c-.21-.27-.43-.53-.66-.79a20.22,20.22,0,0,0-4.44-3.75l-.66-.39Zm8.63,13.41a2.43,2.43,0,0,1-.49.29,9.2,9.2,0,0,1-1.14.43,8.58,8.58,0,0,1-1.2.26l-.25.05L22,28.46a8,8,0,0,1-1.2-.26,9.2,9.2,0,0,1-1.14-.43,2.5,2.5,0,0,1-.5-.29l0,0a18.05,18.05,0,0,0,1.67-2.4,16.12,16.12,0,0,0,1.11-2.29c.12-.28.23-.57.33-.86.1.29.22.58.33.86a18.61,18.61,0,0,0,1.11,2.29,18.12,18.12,0,0,0,1.68,2.4Zm.38.37c.34.39.69.76,1.06,1.12a18.84,18.84,0,0,0,1.88,1.57l-.13.14a5.77,5.77,0,0,1-.63.58,8.45,8.45,0,0,1-1.4.88l-.77.37-.3.13-.43.16a16.3,16.3,0,0,1-1.81.53l-.59.1-.34,0-.33,0-.59-.1a15.7,15.7,0,0,1-1.81-.53L19,32.64l-.3-.13L18,32.14a8.45,8.45,0,0,1-1.4-.88,5.77,5.77,0,0,1-.63-.58l-.13-.14A18.84,18.84,0,0,0,17.68,29c.37-.36.73-.73,1.06-1.12a4.72,4.72,0,0,0,.41.48,3.18,3.18,0,0,0,1.21.79,6,6,0,0,0,1.33.32l.39.06h.24l.4-.06a6.14,6.14,0,0,0,1.33-.32,3.26,3.26,0,0,0,1.21-.79A3.64,3.64,0,0,0,25.66,27.85ZM.65,13.4l0,0,.47-.16a13.75,13.75,0,0,1,1.54-.36,21.73,21.73,0,0,1,3.12-.34,20.84,20.84,0,0,1,6.24.73,18.81,18.81,0,0,1,3.49,1.39.37.37,0,0,0,.14.07c.6.32,1.18.67,1.75,1.05a19.35,19.35,0,0,1,3.54,3.1h0l-.63-.3c-.76-.35-1.53-.69-2.31-1a59.92,59.92,0,0,0-8.56-2.81C8,14.37,6.48,14.07,5,13.84c-.74-.12-1.49-.21-2.24-.28s-1.4-.14-2.11-.15ZM6.27,19a20.45,20.45,0,0,1-4.09-3.68c-.46-.54-.91-1.1-1.33-1.67h0c.71.12,1.43.21,2.14.33l2.44.43a64.8,64.8,0,0,1,8.66,2.25q2.11.72,4.17,1.59c.69.29,1.36.6,2,.91l1,.49.19.1h0c-.42.19-.8.45-1.2.66a8.36,8.36,0,0,1-1.16.51,11.93,11.93,0,0,1-2.63.66h-.11l-.16,0c-.11,0-.22,0-.33,0l-.67.05c-.47,0-.93,0-1.39,0l-.68-.06-.6-.08c-.46-.08-.92-.17-1.36-.29A15.57,15.57,0,0,1,6.27,19ZM3.92,33.16c.15-.48.32-.95.49-1.42A25.19,25.19,0,0,1,7.1,26.5a23.33,23.33,0,0,1,1.79-2.28c.34-.38.69-.74,1-1.09a4.94,4.94,0,0,0,.89-.94c.29.08.58.15.88.21a14.8,14.8,0,0,0,5.39.11h0a44.8,44.8,0,0,0-7.18,4.7,42.94,42.94,0,0,0-3.34,3,34.38,34.38,0,0,0-2.67,3ZM8,33a33.32,33.32,0,0,1-3.87.35c1-1.12,2.11-2.22,3.23-3.26a43.93,43.93,0,0,1,7.06-5.29c1.27-.75,2.56-1.46,3.9-2.09.66-.3,1.32-.59,2-.86l1-.41.2-.07h0s0,.08,0,.11c-.14.44-.3.87-.47,1.29a16.8,16.8,0,0,1-1.22,2.34,17.38,17.38,0,0,1-7,6.36A17,17,0,0,1,8,33Zm19.5,6.43a11.15,11.15,0,0,1-5.25,1.64A11.12,11.12,0,0,1,17,39.43a9,9,0,0,1-4.6-6.93,17.25,17.25,0,0,0,3-1.63l.08.14a5.32,5.32,0,0,0,.65.85,6.5,6.5,0,0,0,1.48,1.19,11.56,11.56,0,0,0,1.8.79,12.72,12.72,0,0,0,2,.55,5.26,5.26,0,0,0,.67.07h.34a4.9,4.9,0,0,0,.67-.07,12.83,12.83,0,0,0,2-.55,11.88,11.88,0,0,0,1.79-.79,6.35,6.35,0,0,0,1.49-1.19A5.32,5.32,0,0,0,29,31l.07-.14a17,17,0,0,0,3,1.63A9,9,0,0,1,27.45,39.43Zm9-6.43a16.82,16.82,0,0,1-4.8-1.53,17.41,17.41,0,0,1-7-6.36,16.73,16.73,0,0,1-1.21-2.34q-.27-.63-.48-1.29l0-.11h0l.2.07,1,.41c.67.27,1.34.56,2,.86,1.33.63,2.63,1.34,3.89,2.09a43.93,43.93,0,0,1,7.06,5.29c1.13,1,2.19,2.14,3.24,3.26A33.49,33.49,0,0,1,36.45,33Zm-2-9.87c.36.35.71.71,1,1.09A20.63,20.63,0,0,1,37.3,26.5,24.72,24.72,0,0,1,40,31.74c.18.47.34.94.5,1.42h0a31.38,31.38,0,0,0-2.67-3,41.18,41.18,0,0,0-3.34-3,44.36,44.36,0,0,0-7.18-4.7h0a14.86,14.86,0,0,0,5.4-.11c.29-.06.59-.13.88-.21A4.6,4.6,0,0,0,34.47,23.13Zm9.08-9.45c-.42.57-.86,1.13-1.32,1.67A20.45,20.45,0,0,1,38.14,19a15.67,15.67,0,0,1-4.92,2.25c-.45.12-.91.21-1.36.29l-.61.08-.68.06c-.46,0-.92,0-1.38,0l-.68-.05c-.11,0-.21,0-.32,0l-.16,0h-.12A12.07,12.07,0,0,1,25.28,21a8.25,8.25,0,0,1-1.15-.51c-.41-.21-.79-.47-1.2-.66h0l.2-.1,1-.49c.67-.31,1.35-.62,2-.91q2.05-.87,4.17-1.59A64.55,64.55,0,0,1,39,14.44L41.41,14c.71-.12,1.43-.21,2.15-.33Zm.2-.28h0c-.7,0-1.41.08-2.11.15s-1.49.16-2.23.28c-1.49.23-3,.53-4.42.9a59.51,59.51,0,0,0-8.56,2.81c-.78.32-1.55.66-2.31,1l-.63.3h0A19.08,19.08,0,0,1,27,15.75a19.29,19.29,0,0,1,1.75-1.05.33.33,0,0,0,.13-.07,18.81,18.81,0,0,1,3.49-1.39,20.94,20.94,0,0,1,6.25-.73,21.75,21.75,0,0,1,3.11.34,13.91,13.91,0,0,1,1.55.36l.46.16Z" fill="#4e2400"/></g></svg>