<svg xmlns="http://www.w3.org/2000/svg" width="414.73" height="90" viewBox="0 0 414.73 90"><path d="M348.42,23.41H335.16L318.4,41V7.51H307.75V67.65H318.4V54.15L324.14,48l12.4,19.65h12.2L332.07,41.22Zm32.89,5.45a19.55,19.55,0,0,0-6.71-4.72,22.84,22.84,0,0,0-9.15-1.71,21.28,21.28,0,0,0-11.19,3,21.87,21.87,0,0,0-7.89,8.17,23.92,23.92,0,0,0-2.88,11.84,24.29,24.29,0,0,0,2.84,11.71,21.62,21.62,0,0,0,8,8.38,22.74,22.74,0,0,0,12,3.09,24,24,0,0,0,8.34-1.39,20.17,20.17,0,0,0,6.54-3.82,15,15,0,0,0,4.07-5.61l-8.62-4.23a11.14,11.14,0,0,1-4,4.15,11.83,11.83,0,0,1-6.22,1.54,12.3,12.3,0,0,1-6.47-1.7,10.67,10.67,0,0,1-4.22-4.84,13,13,0,0,1-1.06-4.19h31.84a8.57,8.57,0,0,0,.45-2.12c.08-.81.12-1.6.12-2.36a23.41,23.41,0,0,0-1.46-8.33A21.13,21.13,0,0,0,381.31,28.86ZM354.81,40.4a14.21,14.21,0,0,1,.75-2.64,10.33,10.33,0,0,1,3.95-4.88,10.76,10.76,0,0,1,5.94-1.67,10.24,10.24,0,0,1,6,1.71A9.53,9.53,0,0,1,375,37.56a10.19,10.19,0,0,1,.61,2.84ZM292.13,15.88h10.66V7.06H292.13Zm120,7a15.31,15.31,0,0,0-7.93,1.95,10.33,10.33,0,0,0-4,4.78V23.41h-10V67.65h10.66V43q0-5,2.76-7.85a9.81,9.81,0,0,1,7.32-2.81h3.82V22.92ZM277.9,25.52a21.2,21.2,0,0,0-11.3-3.09,19.69,19.69,0,0,0-9,2,15.82,15.82,0,0,0-5.21,4.24V23.41h-10V83.92H253V63.33a15.76,15.76,0,0,0,4.68,3.39,20.38,20.38,0,0,0,8.83,1.91,21.73,21.73,0,0,0,11.46-3,22,22,0,0,0,8-8.34,23.67,23.67,0,0,0,2.93-11.71,23.2,23.2,0,0,0-3-11.71A22.86,22.86,0,0,0,277.9,25.52Zm-1.67,26.92a11.72,11.72,0,0,1-4.43,4.72,12.37,12.37,0,0,1-6.5,1.71,11.81,11.81,0,0,1-10.7-6.43A14.55,14.55,0,0,1,253,45.53a14.62,14.62,0,0,1,1.59-6.87,11.75,11.75,0,0,1,10.7-6.47,12.07,12.07,0,0,1,10.93,6.47,14.34,14.34,0,0,1,1.59,6.87A14.55,14.55,0,0,1,276.23,52.44ZM187.46,28.86a19.55,19.55,0,0,0-6.71-4.72,22.84,22.84,0,0,0-9.15-1.71,21.22,21.22,0,0,0-11.18,3,21.72,21.72,0,0,0-7.89,8.17,23.82,23.82,0,0,0-2.89,11.84,24.3,24.3,0,0,0,2.85,11.71,21.48,21.48,0,0,0,8,8.38,22.68,22.68,0,0,0,11.95,3.09,23.93,23.93,0,0,0,8.34-1.39,20.32,20.32,0,0,0,6.55-3.82,15.09,15.09,0,0,0,4.06-5.61l-8.62-4.23a11.14,11.14,0,0,1-4,4.15,11.81,11.81,0,0,1-6.22,1.54,12.24,12.24,0,0,1-6.46-1.7,10.75,10.75,0,0,1-4.23-4.84,13,13,0,0,1-1.06-4.19h31.84a8.57,8.57,0,0,0,.45-2.12c.08-.81.12-1.6.12-2.36a23.41,23.41,0,0,0-1.46-8.33A21.13,21.13,0,0,0,187.46,28.86ZM161,40.4a13.48,13.48,0,0,1,.75-2.64,10.26,10.26,0,0,1,3.94-4.88,10.79,10.79,0,0,1,5.94-1.67,10.3,10.3,0,0,1,6,1.71,9.57,9.57,0,0,1,3.57,4.64,10.19,10.19,0,0,1,.61,2.84ZM150.88,22.92h-2.6a15.29,15.29,0,0,0-7.93,1.95,10.33,10.33,0,0,0-4,4.78V23.41h-22.2V21.94A6,6,0,0,1,116.07,17a8.55,8.55,0,0,1,5.53-1.58c.38,0,.8,0,1.26,0a10,10,0,0,1,1.51.2V6.49c-.55-.11-1.21-.2-2-.29a21.25,21.25,0,0,0-2.15-.12A19.73,19.73,0,0,0,111.35,8a13.69,13.69,0,0,0-5.81,5.41,16.73,16.73,0,0,0-2.08,8.58v1.47h-7.8v9.51h7.8V67.65h10.66V32.92h12.2V67.65H137V43q0-5,2.77-7.85a9.81,9.81,0,0,1,7.32-2.81h3.82ZM292.13,67.65h10.66V23.41H292.13ZM233.49,28.86a19.45,19.45,0,0,0-6.71-4.72,22.84,22.84,0,0,0-9.15-1.71,21.24,21.24,0,0,0-11.18,3,21.87,21.87,0,0,0-7.89,8.17,23.92,23.92,0,0,0-2.89,11.84,24.3,24.3,0,0,0,2.85,11.71,21.62,21.62,0,0,0,8,8.38,22.71,22.71,0,0,0,12,3.09,23.91,23.91,0,0,0,8.33-1.39,20.11,20.11,0,0,0,6.55-3.82,15.12,15.12,0,0,0,4.07-5.61l-8.62-4.23a11.14,11.14,0,0,1-4,4.15,11.83,11.83,0,0,1-6.22,1.54,12.27,12.27,0,0,1-6.47-1.7,10.75,10.75,0,0,1-4.23-4.84,13.24,13.24,0,0,1-1.06-4.19h31.85a9.59,9.59,0,0,0,.45-2.12c.08-.81.12-1.6.12-2.36a23.2,23.2,0,0,0-1.47-8.33A20.79,20.79,0,0,0,233.49,28.86ZM207,40.4a13.48,13.48,0,0,1,.75-2.64,10.33,10.33,0,0,1,3.95-4.88,10.75,10.75,0,0,1,5.93-1.67,10.25,10.25,0,0,1,6,1.71,9.53,9.53,0,0,1,3.58,4.64,10.55,10.55,0,0,1,.6,2.84Zm-124.42-16c-.74-.31-1.5-.56-2.27-.8a34.93,34.93,0,0,0-6-1.24c-.4-.05-.81-.08-1.21-.12a33.41,33.41,0,0,0-62.94,0c-.4,0-.81.07-1.21.12a34.93,34.93,0,0,0-6,1.24c-.77.24-1.53.49-2.27.8l-.55.24L0,24.66c.13.23.27.47.41.69A45.72,45.72,0,0,0,4.14,30.7a35.51,35.51,0,0,0,4.05,4.18V56.47a32.47,32.47,0,0,0-1.76,6.1c0,.25-.09.49-.12.74l.66,0c.65,0,1.3,0,1.94,0a33.42,33.42,0,0,0,65.44,0c.64,0,1.29,0,1.93,0l.67,0-.12-.74a33.23,33.23,0,0,0-1.76-6.1V34.88a35.51,35.51,0,0,0,4.05-4.18,45.72,45.72,0,0,0,3.73-5.35c.14-.22.28-.46.41-.69l-.13-.06Zm-40.95-23a32.12,32.12,0,0,1,30,20.77,36.65,36.65,0,0,0-9.56.94,37.23,37.23,0,0,0-7.86,2.82,7.27,7.27,0,0,0-.7-.75A13.8,13.8,0,0,0,52.1,23.9a15.5,15.5,0,0,0-1.52-1c0-.05,0-.1,0-.16a5.16,5.16,0,0,1-.1-.87A6.25,6.25,0,0,1,50.67,20a6.79,6.79,0,0,1,.69-1.65,10.6,10.6,0,0,1,.87-1.13l.11.07a4,4,0,0,0,2.41.4,3.37,3.37,0,0,0,1.9-1,3.18,3.18,0,0,0,.74-2.51A4.19,4.19,0,0,0,55,11a3.93,3.93,0,0,0-4.16.29A3,3,0,0,0,50,14a4.46,4.46,0,0,0,.33,1.29l0,0a6.29,6.29,0,0,0-.92.79,10.29,10.29,0,0,0-1.48,2A10.15,10.15,0,0,0,47,20.31a9.12,9.12,0,0,0-.21,1,18.63,18.63,0,0,0-5.11-.42,18.63,18.63,0,0,0-5.11.42,9.12,9.12,0,0,0-.21-1,10.15,10.15,0,0,0-.93-2.26,10.29,10.29,0,0,0-1.48-2,6.29,6.29,0,0,0-.92-.79l0,0A4.46,4.46,0,0,0,33.28,14a3,3,0,0,0-.85-2.71A3.93,3.93,0,0,0,28.27,11a4.16,4.16,0,0,0-2.4,3.24,3.18,3.18,0,0,0,.74,2.51,3.37,3.37,0,0,0,1.9,1,4,4,0,0,0,2.41-.4l.11-.07a9.35,9.35,0,0,1,.86,1.13,6.45,6.45,0,0,1,.7,1.65,6.25,6.25,0,0,1,.21,1.82,5.16,5.16,0,0,1-.1.87c0,.06,0,.11,0,.16a14.39,14.39,0,0,0-1.52,1,13.8,13.8,0,0,0-1.41,1.23,7.27,7.27,0,0,0-.7.75,37.12,37.12,0,0,0-7.87-2.82,36.54,36.54,0,0,0-9.55-.94A32.11,32.11,0,0,1,41.63,1.35ZM53.39,57.52a11.23,11.23,0,0,1-1.19,1.09,15.14,15.14,0,0,1-2.62,1.64c-.48.25-1,.49-1.45.71l-.57.24c-.26.1-.53.21-.8.3a26.82,26.82,0,0,1-3.39,1c-.37.08-.74.13-1.11.2-.21,0-.42.06-.63.08s-.42,0-.63-.08c-.37-.07-.74-.12-1.11-.2a26.82,26.82,0,0,1-3.39-1c-.27-.09-.54-.2-.8-.3L35.13,61c-.49-.22-1-.46-1.45-.71a15.14,15.14,0,0,1-2.62-1.64,11.23,11.23,0,0,1-1.19-1.09l-.24-.25a34.36,34.36,0,0,0,3.53-3c.69-.66,1.35-1.36,2-2.08a9.16,9.16,0,0,0,.76.89,6.16,6.16,0,0,0,2.27,1.48,12.41,12.41,0,0,0,2.49.61c.25,0,.5.07.75.09a.81.81,0,0,0,.22,0,.81.81,0,0,0,.22,0c.25,0,.5-.06.75-.09a12.41,12.41,0,0,0,2.49-.61,6.16,6.16,0,0,0,2.27-1.48,9.16,9.16,0,0,0,.76-.89c.63.72,1.29,1.42,2,2.08a34.36,34.36,0,0,0,3.53,3Zm1,.62.14-.27a32.35,32.35,0,0,0,5.6,3.06c-.47,2.68-1.68,9.4-8.62,13-3.75,1.94-6.79,3.17-9.84,3.09-3.05.08-6.09-1.15-9.84-3.09-6.94-3.59-8.15-10.31-8.62-13a32.73,32.73,0,0,0,5.6-3.06c.05.12.11.21.14.27a10.59,10.59,0,0,0,1.21,1.61A12.45,12.45,0,0,0,32.91,62a20.63,20.63,0,0,0,3.37,1.48,24.55,24.55,0,0,0,3.78,1,10.38,10.38,0,0,0,1.25.13H42a10.38,10.38,0,0,0,1.25-.13,24.55,24.55,0,0,0,3.78-1A20.63,20.63,0,0,0,50.35,62a12.18,12.18,0,0,0,2.78-2.22A10,10,0,0,0,54.35,58.14Zm-6.94-6.62a5.89,5.89,0,0,1-.93.56,17.81,17.81,0,0,1-2.15.79,16.88,16.88,0,0,1-2.24.5l-.46.08-.46-.08a17.39,17.39,0,0,1-2.25-.5,18.31,18.31,0,0,1-2.14-.79,5.89,5.89,0,0,1-.93-.56l-.06-.05A33.26,33.26,0,0,0,38.93,47,34.12,34.12,0,0,0,41,42.67c.2-.52.42-1.06.61-1.6.19.54.41,1.08.61,1.6A34.12,34.12,0,0,0,44.33,47a33.26,33.26,0,0,0,3.14,4.5ZM41.63,36.05c-.4-.5-.81-1-1.24-1.47a37.59,37.59,0,0,0-8.32-7c-.41-.25-.82-.5-1.24-.73.14-.16.27-.32.4-.44a13.48,13.48,0,0,1,1.21-1.05,13.65,13.65,0,0,1,5.9-2.43c1.1-.19,2.18-.3,3.29-.39,1.11.09,2.19.2,3.29.39a13.56,13.56,0,0,1,5.89,2.43A12.27,12.27,0,0,1,52,26.38c.13.12.26.28.4.44-.42.23-.83.48-1.24.73a37.59,37.59,0,0,0-8.32,7C42.44,35.06,42,35.55,41.63,36.05ZM31.92,15h0c-.28.26-.62.45-.91.7a3.67,3.67,0,0,1-.82.52,2.39,2.39,0,0,1-1.68.16,1.88,1.88,0,0,1-1.15-.82,2.15,2.15,0,0,1-.15-1.72A3.11,3.11,0,0,1,29.12,12a3,3,0,0,1,1.45-.18,1.83,1.83,0,0,1,1.27.66,2.87,2.87,0,0,1,.25,1.83,5.4,5.4,0,0,1-.1.58c-.06,0-.12.07-.1.13Zm0,1.52a2.43,2.43,0,0,0,.2-.25,2.67,2.67,0,0,0,.44-.45c.25.24.49.5.72.76a9.45,9.45,0,0,1,2.12,4,8.26,8.26,0,0,1,.2,1c-.42.13-.84.27-1.25.44l-.46.21c0-.15,0-.29,0-.44a6.49,6.49,0,0,0-.32-2.1,6.42,6.42,0,0,0-1-1.93,5.44,5.44,0,0,0-.93-1Zm19.3-1.71a5.4,5.4,0,0,1-.1-.58,2.87,2.87,0,0,1,.25-1.83,1.83,1.83,0,0,1,1.27-.66,3,3,0,0,1,1.45.18,3.13,3.13,0,0,1,1.91,1.92,2.19,2.19,0,0,1-.15,1.72,1.88,1.88,0,0,1-1.15.82,2.38,2.38,0,0,1-1.68-.16,3.67,3.67,0,0,1-.82-.52c-.29-.25-.63-.44-.91-.7h0a.14.14,0,0,0,0-.06C51.39,14.92,51.33,14.86,51.27,14.85Zm0,1.71.25.22a5.44,5.44,0,0,0-.93,1,6.42,6.42,0,0,0-1,1.93,6.49,6.49,0,0,0-.32,2.1c0,.15,0,.29,0,.44L48.86,22c-.41-.17-.83-.31-1.25-.44,0-.33.11-.67.19-1a9.9,9.9,0,0,1,.82-2.12,9.27,9.27,0,0,1,1.3-1.86c.24-.26.48-.52.73-.76a2.67,2.67,0,0,0,.44.45A1.57,1.57,0,0,0,51.29,16.56ZM1.22,25.13a.18.18,0,0,1-.05-.07L2,24.77a26,26,0,0,1,2.9-.68,42.4,42.4,0,0,1,5.84-.64,39.12,39.12,0,0,1,11.7,1.38A35.61,35.61,0,0,1,29,27.43a.82.82,0,0,0,.26.14c1.12.6,2.22,1.25,3.28,2a36.44,36.44,0,0,1,6.64,5.82h0L38,34.8q-2.15-1-4.33-1.9a112,112,0,0,0-16-5.27c-2.74-.68-5.5-1.25-8.29-1.69-1.39-.22-2.79-.38-4.19-.52s-2.64-.26-4-.28Zm2.87,3.64c-.87-1-1.71-2.05-2.49-3.12h0c1.34.22,2.69.38,4,.61,1.53.26,3.05.54,4.57.82a121.41,121.41,0,0,1,16.24,4.21c2.64.9,5.26,1.89,7.83,3,1.27.54,2.54,1.11,3.8,1.7l1.9.92.37.19,0,0c-.78.35-1.49.85-2.25,1.24a18.67,18.67,0,0,1-2.17,1,23.26,23.26,0,0,1-4.93,1.23h-.06l-.15,0-.3,0-.61.06c-.42,0-.85.06-1.27.07-.87,0-1.73,0-2.6,0l-1.27-.11c-.46-.05-.67-.08-1.13-.15-.86-.15-1.71-.32-2.56-.54a29.73,29.73,0,0,1-9.22-4.21A38.16,38.16,0,0,1,4.09,28.77Zm14.75,12.4q-.22.18-.45.39-.59.54-1.14,1.11c-.74.74-1.44,1.51-2.12,2.31A42.6,42.6,0,0,0,9.54,53.5V36c.83.66,1.67,1.29,2.54,1.86A29,29,0,0,0,18.84,41.17Zm-11.49,21c.29-.9.59-1.79.92-2.66a46.53,46.53,0,0,1,5.05-9.82,40.65,40.65,0,0,1,3.36-4.29c.62-.7,1.27-1.37,1.94-2a9.31,9.31,0,0,0,1.67-1.77c.54.15,1.09.28,1.64.39A27.72,27.72,0,0,0,32,42.2h0A82.9,82.9,0,0,0,18.6,51a80.83,80.83,0,0,0-6.26,5.59,61.58,61.58,0,0,0-5,5.59Zm.3.35c2-2.08,3.95-4.15,6.06-6.09A81.52,81.52,0,0,1,27,46.51a80.11,80.11,0,0,1,7.31-3.92C35.49,42,36.73,41.48,38,41l1.92-.76.38-.14h0c0,.08,0,.15-.07.22-.26.82-.56,1.63-.89,2.42a31,31,0,0,1-2.28,4.39A32.58,32.58,0,0,1,23.92,59a31.72,31.72,0,0,1-9,2.88A60.79,60.79,0,0,1,7.65,62.52Zm34,26.13h0A32.13,32.13,0,0,1,10.29,63.39a40.9,40.9,0,0,0,6.34-.54,28.74,28.74,0,0,0,5.42-1.47,14.77,14.77,0,0,0,.2,2.17c1.47,9.73,12,16,19.38,16s17.9-6.22,19.38-16a14.77,14.77,0,0,0,.2-2.17,28.74,28.74,0,0,0,5.42,1.47,40.9,40.9,0,0,0,6.34.54A32.13,32.13,0,0,1,41.63,88.65ZM68.34,61.88a31.66,31.66,0,0,1-9-2.88A32.58,32.58,0,0,1,46.21,47.09a30,30,0,0,1-2.28-4.39c-.33-.79-.63-1.6-.89-2.42,0-.07,0-.14-.07-.22h0l.37.14,1.93.76c1.26.52,2.5,1,3.73,1.63a80.11,80.11,0,0,1,7.31,3.92,81.52,81.52,0,0,1,13.24,9.92c2.11,1.94,4.09,4,6.06,6.09A61.14,61.14,0,0,1,68.34,61.88Zm7.57.29v0a60.22,60.22,0,0,0-5-5.59A78.89,78.89,0,0,0,64.66,51,82.9,82.9,0,0,0,51.2,42.2h0A27.71,27.71,0,0,0,61.32,42q.84-.16,1.65-.39a9.26,9.26,0,0,0,1.66,1.77c.67.66,1.33,1.33,2,2a40.65,40.65,0,0,1,3.36,4.29,46.53,46.53,0,0,1,5,9.82C75.31,60.38,75.62,61.27,75.91,62.17Zm-11.5-21a28.66,28.66,0,0,0,6.76-3.31c.88-.57,1.72-1.2,2.55-1.86V53.5A42.6,42.6,0,0,0,68.13,45c-.68-.8-1.38-1.57-2.12-2.31-.37-.38-.76-.75-1.15-1.11A4.19,4.19,0,0,0,64.41,41.17ZM81.66,25.65c-.79,1.07-1.62,2.12-2.49,3.12a38.16,38.16,0,0,1-7.66,6.92,29.73,29.73,0,0,1-9.22,4.21c-.85.22-1.7.39-2.56.54-.46.07-.67.1-1.13.15l-1.27.11c-.87,0-1.74.06-2.6,0-.43,0-.85,0-1.27-.07l-.61-.06-.3,0-.15,0h-.06a23.26,23.26,0,0,1-4.93-1.23,18.67,18.67,0,0,1-2.17-1c-.76-.39-1.47-.89-2.25-1.24l-.05,0,.37-.19,1.9-.92c1.26-.59,2.53-1.16,3.8-1.7,2.57-1.1,5.19-2.09,7.83-3a121,121,0,0,1,16.24-4.21c1.52-.28,3-.56,4.57-.82,1.33-.23,2.68-.39,4-.61Zm.38-.52h0c-1.33,0-2.64.16-4,.28s-2.8.3-4.19.52c-2.79.44-5.55,1-8.29,1.69a112,112,0,0,0-16,5.27q-2.19.91-4.33,1.9L44,35.36h0a36.44,36.44,0,0,1,6.64-5.82c1.06-.71,2.16-1.36,3.28-2a.82.82,0,0,0,.26-.14,35.61,35.61,0,0,1,6.55-2.6,39.12,39.12,0,0,1,11.7-1.38,42.4,42.4,0,0,1,5.84.64,26.51,26.51,0,0,1,2.9.68l.87.29Z" fill="#f0ece8"/></svg>