<svg xmlns="http://www.w3.org/2000/svg" xmlns:xlink="http://www.w3.org/1999/xlink" width="147.46" height="32" viewBox="0 0 147.46 32"><defs><radialGradient id="a" cx="144.48" cy="2.3" r="91.65" gradientUnits="userSpaceOnUse"><stop offset="0" stop-color="#f5c772"/><stop offset="0.18" stop-color="#c89251"/><stop offset="0.35" stop-color="#a26737"/><stop offset="0.48" stop-color="#8b4d26"/><stop offset="0.56" stop-color="#834320"/><stop offset="1"/></radialGradient><radialGradient id="b" cx="14.8" cy="16" r="13.86" gradientUnits="userSpaceOnUse"><stop offset="0.44" stop-color="#ffff60"/><stop offset="0.68" stop-color="#ffce39"/><stop offset="1" stop-color="#df973b"/></radialGradient><radialGradient id="c" cx="14.72" cy="24.88" r="5.22" gradientUnits="userSpaceOnUse"><stop offset="0" stop-color="#e59c39"/><stop offset="1" stop-color="#956531"/></radialGradient></defs><g style="isolation:isolate"><path d="M53.65,8.15h-.93a5.46,5.46,0,0,0-2.82.69,3.75,3.75,0,0,0-1.43,1.7V8.32H40.58V7.8a2.13,2.13,0,0,1,.69-1.75,3.08,3.08,0,0,1,2-.56h.44a3.71,3.71,0,0,1,.54.08V2.31c-.19,0-.43-.07-.71-.1a7.25,7.25,0,0,0-.77,0,6.9,6.9,0,0,0-3.15.67,4.92,4.92,0,0,0-2.07,1.92,6,6,0,0,0-.73,3.05v.52H34v3.39h2.78V24.05h3.79V11.71h4.33V24.05H48.7V15.29a3.84,3.84,0,0,1,1-2.79,3.54,3.54,0,0,1,2.61-1h1.36Zm13,2.11a7,7,0,0,0-2.38-1.68A8.24,8.24,0,0,0,61,8a7.48,7.48,0,0,0-4,1.07A7.75,7.75,0,0,0,54.23,12a8.55,8.55,0,0,0-1,4.21,8.57,8.57,0,0,0,1,4.16,7.58,7.58,0,0,0,2.83,3,8.1,8.1,0,0,0,4.25,1.1,8.57,8.57,0,0,0,3-.49,7.21,7.21,0,0,0,2.32-1.36,5.3,5.3,0,0,0,1.45-2L65,19.05a3.91,3.91,0,0,1-1.43,1.48,4.23,4.23,0,0,1-2.21.55,4.39,4.39,0,0,1-2.3-.61,3.88,3.88,0,0,1-1.5-1.72,4.6,4.6,0,0,1-.38-1.49H68.47a3,3,0,0,0,.16-.75,8.21,8.21,0,0,0,.05-.84,8.5,8.5,0,0,0-.52-3A7.51,7.51,0,0,0,66.65,10.26Zm-9.42,4.11a4.94,4.94,0,0,1,.27-.94,3.65,3.65,0,0,1,1.4-1.74A3.87,3.87,0,0,1,61,11.1a3.64,3.64,0,0,1,2.13.61,3.35,3.35,0,0,1,1.27,1.64,3.78,3.78,0,0,1,.22,1ZM83,10.26a7.07,7.07,0,0,0-2.39-1.68A8.19,8.19,0,0,0,77.38,8a7.54,7.54,0,0,0-4,1.07A7.72,7.72,0,0,0,70.6,12a8.55,8.55,0,0,0-1,4.21,8.57,8.57,0,0,0,1,4.16,7.51,7.51,0,0,0,2.83,3,8.08,8.08,0,0,0,4.25,1.1,8.47,8.47,0,0,0,3-.49A7.16,7.16,0,0,0,83,22.55a5.3,5.3,0,0,0,1.45-2l-3.07-1.5a3.91,3.91,0,0,1-1.43,1.48,4.26,4.26,0,0,1-2.21.55,4.39,4.39,0,0,1-2.3-.61,3.76,3.76,0,0,1-1.5-1.72,4.6,4.6,0,0,1-.38-1.49H84.84a3,3,0,0,0,.16-.75,8.13,8.13,0,0,0,0-.84,8.28,8.28,0,0,0-.52-3A7.32,7.32,0,0,0,83,10.26ZM73.6,14.37a4.3,4.3,0,0,1,.27-.94,3.65,3.65,0,0,1,1.4-1.74,3.87,3.87,0,0,1,2.11-.59,3.64,3.64,0,0,1,2.13.61A3.46,3.46,0,0,1,81,14.37Zm25.21-5.3a7.58,7.58,0,0,0-4-1.09,7,7,0,0,0-3.21.7,5.59,5.59,0,0,0-1.85,1.51V8.32H86.17V29.84H90V22.52a5.74,5.74,0,0,0,1.66,1.2,7.29,7.29,0,0,0,3.14.68,7.65,7.65,0,0,0,6.91-4,8.37,8.37,0,0,0,1-4.16,8.15,8.15,0,0,0-3.9-7.12Zm-.59,9.58a4.17,4.17,0,0,1-1.58,1.67,4.36,4.36,0,0,1-2.31.61,4.16,4.16,0,0,1-2.24-.61,4.21,4.21,0,0,1-1.57-1.67,5.66,5.66,0,0,1,0-4.91,4.37,4.37,0,0,1,7.7,0,5.21,5.21,0,0,1,.56,2.45A5.31,5.31,0,0,1,98.22,18.65Zm5.65-13h3.79V2.51h-3.79Zm0,18.4h3.79V8.32h-3.79Zm20-15.73h-4.71l-6,6.24V2.67h-3.79V24.05h3.79v-4.8l2-2.18,4.41,7H124l-5.93-9.39Zm11.7,1.94a7.17,7.17,0,0,0-2.39-1.68,8.23,8.23,0,0,0-3.25-.6,7.51,7.51,0,0,0-4,1.07,7.65,7.65,0,0,0-2.8,2.9,8.44,8.44,0,0,0-1,4.21,8.68,8.68,0,0,0,1,4.16,7.65,7.65,0,0,0,2.83,3,8.14,8.14,0,0,0,4.26,1.1,8.55,8.55,0,0,0,3-.49,7.26,7.26,0,0,0,2.33-1.36,5.38,5.38,0,0,0,1.44-2l-3.06-1.5a4.06,4.06,0,0,1-1.43,1.48,4.3,4.3,0,0,1-2.22.55,4.35,4.35,0,0,1-2.29-.61,3.84,3.84,0,0,1-1.51-1.72,5.18,5.18,0,0,1-.38-1.49H137.4a3.51,3.51,0,0,0,.16-.75,8.13,8.13,0,0,0,0-.84,8.28,8.28,0,0,0-.52-3A7.66,7.66,0,0,0,135.58,10.26Zm-9.42,4.11a4.3,4.3,0,0,1,.26-.94,3.67,3.67,0,0,1,1.41-1.74,3.85,3.85,0,0,1,2.11-.59,3.6,3.6,0,0,1,2.12.61,3.35,3.35,0,0,1,1.27,1.64,3.78,3.78,0,0,1,.22,1Zm20.38-6.22a5.46,5.46,0,0,0-2.82.69,3.77,3.77,0,0,0-1.44,1.7V8.32h-3.55V24.05h3.79V15.29a3.8,3.8,0,0,1,1-2.79,3.5,3.5,0,0,1,2.6-1h1.36V8.15Z" fill="url(#a)"/><path d="M14.8.24h0A11.68,11.68,0,0,0,3.15,11.89v8.22A11.68,11.68,0,0,0,14.8,31.76h0A11.68,11.68,0,0,0,26.45,20.11V11.89A11.68,11.68,0,0,0,14.8.24Z" fill="url(#b)"/><path d="M14.8,32A11.9,11.9,0,0,1,2.91,20.11V11.89a11.89,11.89,0,0,1,23.78,0v8.22A11.9,11.9,0,0,1,14.8,32ZM14.8.48A11.42,11.42,0,0,0,3.39,11.89v8.22A11.42,11.42,0,0,0,14.8,31.52h0A11.42,11.42,0,0,0,26.21,20.11V11.89A11.42,11.42,0,0,0,14.8.48Z" fill="#4e2400"/><path d="M16.84,11.23a15.67,15.67,0,0,1,5.91-2.92,11.33,11.33,0,0,1,6.54.52,12.1,12.1,0,0,1-5.95,5.28,9.38,9.38,0,0,1-7.84-.42C14.15,12.93,16.17,11.73,16.84,11.23Z" fill="#ffdc19"/><path d="M12.76,11.23A15.67,15.67,0,0,0,6.85,8.31a11.34,11.34,0,0,0-6.54.52,12.14,12.14,0,0,0,6,5.28,9.38,9.38,0,0,0,7.84-.42C15.45,12.93,13.43,11.73,12.76,11.23Z" fill="#ffdc19"/><path d="M23.49,8.63c.23,0,.48.07.57.28s0,.43-.2.6a2.44,2.44,0,0,1-1.12.66,1.91,1.91,0,0,1,2.23.57,1.84,1.84,0,0,1-.09,1.63,4.27,4.27,0,0,1-1,1.37c2.34-.8,4-2.87,5.45-4.84a9.41,9.41,0,0,0-4.48-.84,10.46,10.46,0,0,0-4.5,1A6.13,6.13,0,0,1,23.49,8.63Z" fill="#f9cc13" opacity="0.5" style="mix-blend-mode:multiply"/><path d="M6.11,8.63c-.22,0-.48.07-.57.28s0,.43.2.6a2.55,2.55,0,0,0,1.12.66,1.89,1.89,0,0,0-2.22.57,1.84,1.84,0,0,0,.08,1.63,4.27,4.27,0,0,0,1,1.37c-2.33-.8-4-2.87-5.45-4.84a9.43,9.43,0,0,1,4.49-.84,10.5,10.5,0,0,1,4.5,1A6.19,6.19,0,0,0,6.11,8.63Z" fill="#f9cc13" opacity="0.5" style="mix-blend-mode:multiply"/><path d="M16.47,17.25a13.73,13.73,0,0,0,2.25,2.56,12.07,12.07,0,0,0,8.48,2.48,15.33,15.33,0,0,0-4.76-7.8,20.54,20.54,0,0,1-3.91.29,8.19,8.19,0,0,1-2-.32c-.58-.17-1.12-.58-1.68-.73a3.93,3.93,0,0,0,.44,1.55A10.2,10.2,0,0,0,16.47,17.25Z" fill="#f9cc13"/><path d="M13.13,17.25a13.38,13.38,0,0,1-2.25,2.56A12.05,12.05,0,0,1,2.4,22.29a15.4,15.4,0,0,1,4.76-7.8,20.54,20.54,0,0,0,3.91.29,8.11,8.11,0,0,0,2-.32c.58-.17,1.13-.58,1.68-.73a3.62,3.62,0,0,1-.44,1.55A10.2,10.2,0,0,1,13.13,17.25Z" fill="#f9cc13"/><path d="M20.41,19.5a1.57,1.57,0,0,0,1.07-.1A1.15,1.15,0,0,0,21.82,18a3.27,3.27,0,0,0-.92-1.18l1.63.72a1.37,1.37,0,0,0,.83.18.94.94,0,0,0,.63-.9,2.84,2.84,0,0,0-.3-1.14,14.22,14.22,0,0,1,3.47,6.51,22.26,22.26,0,0,1-2.23.05,11.33,11.33,0,0,1-2.24-.41,11.45,11.45,0,0,1-4.07-2.14,6.83,6.83,0,0,1-1.73-1.83A9.78,9.78,0,0,0,20.41,19.5Z" fill="#f9cc13" opacity="0.5" style="mix-blend-mode:multiply"/><path d="M9.19,19.5a1.54,1.54,0,0,1-1.06-.1A1.16,1.16,0,0,1,7.78,18a3.38,3.38,0,0,1,.92-1.18l-1.63.72a1.34,1.34,0,0,1-.82.18.93.93,0,0,1-.64-.9,2.7,2.7,0,0,1,.31-1.14,14,14,0,0,0-3.47,6.51,22.19,22.19,0,0,0,2.23.05A11.42,11.42,0,0,0,11,19.73a6.68,6.68,0,0,0,1.73-1.83A9.63,9.63,0,0,1,9.19,19.5Z" fill="#f9cc13" opacity="0.5" style="mix-blend-mode:multiply"/><path d="M17.68,17.42a5.24,5.24,0,0,0,3,1.41.55.55,0,0,0,.4-.08c.21-.18.08-.53-.1-.74-1.2-1.51-3.45-2-5.06-3A5.88,5.88,0,0,0,17.68,17.42Z" fill="#f9cc13" opacity="0.5" style="mix-blend-mode:multiply"/><path d="M11.92,17.42a5.24,5.24,0,0,1-3,1.41.54.54,0,0,1-.4-.08c-.22-.18-.08-.53.09-.74,1.2-1.51,3.46-2,5.06-3A5.79,5.79,0,0,1,11.92,17.42Z" fill="#f9cc13" opacity="0.5" style="mix-blend-mode:multiply"/><path d="M22.39,17.05h0a.61.61,0,0,0,.75-.88,3,3,0,0,0-.61-.86.16.16,0,0,0-.1,0,6.37,6.37,0,0,1-2.2.42c.22,0,.87.6,1.09.72A5,5,0,0,0,22.39,17.05Z" fill="#f9cc13" opacity="0.5" style="mix-blend-mode:multiply"/><path d="M7.21,17.05h0a.61.61,0,0,1-.74-.88,3,3,0,0,1,.61-.86.18.18,0,0,1,.1,0,6.31,6.31,0,0,0,2.19.42c-.21,0-.86.6-1.09.72A5,5,0,0,1,7.21,17.05Z" fill="#f9cc13" opacity="0.5" style="mix-blend-mode:multiply"/><path d="M21.14,9.17a3.74,3.74,0,0,1,1.61-.29c.23,0,.51.12.54.35s-.3.44-.57.51c-.94.26-1.9.49-2.84.77s-1.7.67-2.55.94c.25-.52,1.06-.88,1.54-1.16A12.94,12.94,0,0,1,21.14,9.17Z" fill="#fff" opacity="0.4"/><path d="M8.46,9.17a3.71,3.71,0,0,0-1.61-.29c-.23,0-.5.12-.53.35s.29.44.56.51c1,.26,1.9.49,2.85.77s1.69.67,2.55.94c-.25-.52-1.07-.88-1.54-1.16A13,13,0,0,0,8.46,9.17Z" fill="#fff" opacity="0.4"/><path d="M23.18,10.82a1.27,1.27,0,0,1,.72-.05,1,1,0,0,1,.51,1.1A2.35,2.35,0,0,1,23,13.57a5.17,5.17,0,0,1-2.27.36,13.19,13.19,0,0,1-3.18-.45c-.76-.21-1.42-.4-.41-.82A54.66,54.66,0,0,1,23.18,10.82Z" fill="#fff" opacity="0.4"/><path d="M6.43,10.82a1.31,1.31,0,0,0-.73-.05,1,1,0,0,0-.51,1.1,2.39,2.39,0,0,0,1.42,1.7,5.1,5.1,0,0,0,2.26.36,13.19,13.19,0,0,0,3.18-.45c.76-.21,1.42-.4.41-.82A55.15,55.15,0,0,0,6.43,10.82Z" fill="#fff" opacity="0.4"/><path d="M14.8,13.11a14.37,14.37,0,0,1,4.39-3.67l-1-.67A1.55,1.55,0,0,1,18,8.58a.94.94,0,0,1-.16-.43,2.8,2.8,0,0,1,.3-1.82.71.71,0,0,1,.41-.39c.23-.06.46.09.69.12a.93.93,0,0,0,.95-1.12A1.35,1.35,0,0,0,18.9,4a1,1,0,0,0-.51.08c-.5.26-.49,1-.41,1.51A3.28,3.28,0,0,0,16.72,8a4.2,4.2,0,0,0-1.92-.28A4.14,4.14,0,0,0,12.89,8a3.33,3.33,0,0,0-1.27-2.42c.09-.55.09-1.25-.4-1.51A1,1,0,0,0,10.7,4a1.36,1.36,0,0,0-1.26,1,.94.94,0,0,0,1,1.12c.24,0,.47-.18.69-.12a.71.71,0,0,1,.41.39,2.75,2.75,0,0,1,.31,1.82,1,1,0,0,1-.17.43,1.45,1.45,0,0,1-.23.19l-1,.67A14.22,14.22,0,0,1,14.8,13.11Z" fill="#c67900"/><path d="M14.86,13.82c1.36,5.76,6.4,7.23,6.64,7.84.14.36-.05,2-1.83,3.9a7.78,7.78,0,0,1-4.87,2.38,7.8,7.8,0,0,1-4.87-2.38C8.16,23.68,8,22,8.11,21.66c.24-.61,5.27-2.08,6.64-7.84" fill="#733708"/><path d="M19.69,4.4a1.18,1.18,0,0,1-.05.72.64.64,0,0,1-.57.4c-.22,0-.45-.16-.65-.08a.65.65,0,0,0-.28.29,11.75,11.75,0,0,0-.7,1.48,1.31,1.31,0,0,0,0,1.29c.08.1.2.18.28.3a.77.77,0,0,1-.23,1,3.45,3.45,0,0,1-1,.46,4.42,4.42,0,0,0-1.71,1.21,4.42,4.42,0,0,0-1.71-1.21,3.39,3.39,0,0,1-1-.46.78.78,0,0,1-.24-1,2.76,2.76,0,0,1,.29-.3,1.34,1.34,0,0,0,0-1.29,10.51,10.51,0,0,0-.7-1.48.69.69,0,0,0-.27-.29c-.21-.08-.44.07-.66.08a.65.65,0,0,1-.57-.4,1.18,1.18,0,0,1-.05-.72A.93.93,0,0,0,9.5,5.5a.92.92,0,0,0,1,.56c.17,0,.34-.11.49,0a.52.52,0,0,1,.24.2,3,3,0,0,1,.56,1.44,1.25,1.25,0,0,1-.05.51c-.23.55-1.12.64-1.24,1.22a16.72,16.72,0,0,1,4.28,3.89,16.89,16.89,0,0,1,4.28-3.89c-.11-.58-1-.67-1.23-1.22a1,1,0,0,1-.05-.51,2.9,2.9,0,0,1,.55-1.44.58.58,0,0,1,.24-.2.92.92,0,0,1,.49,0,.91.91,0,0,0,1-.56A.92.92,0,0,0,19.69,4.4ZM16.05,16.57a2.79,2.79,0,0,1-.81-1.67c-.11-.49-.23-1-.34-1.48h-.2c-.11.5-.22,1-.34,1.48a2.83,2.83,0,0,1-.8,1.67A5.44,5.44,0,0,0,14.8,17,5.69,5.69,0,0,0,16.05,16.57Zm-3.42,1.64a1.9,1.9,0,0,1-.68.7s-.06,0-.06.06,0,.05,0,.07A5.16,5.16,0,0,0,14.8,21,5.12,5.12,0,0,0,17.69,19s0,0,0-.07,0,0-.05-.06a1.85,1.85,0,0,1-.69-.7,1.77,1.77,0,0,1-1.07,1,3.69,3.69,0,0,1-1.1.2,3.68,3.68,0,0,1-1.09-.2A1.76,1.76,0,0,1,12.63,18.21Zm6.23,3a8.15,8.15,0,0,1-4.06,1.64,8.15,8.15,0,0,1-4.06-1.64,1.85,1.85,0,0,1-.71-.86,2.67,2.67,0,0,0-.76.53,7.94,7.94,0,0,0,5,3.28,2,2,0,0,0,1,0,7.94,7.94,0,0,0,5-3.28,2.77,2.77,0,0,0-.75-.53A1.93,1.93,0,0,1,18.86,21.18Z" fill="#874f15"/><path d="M14.8,8.29a6.47,6.47,0,0,1,2.68.61A1.22,1.22,0,0,1,17,7.7a3.05,3.05,0,0,1,.54-1.24,5.94,5.94,0,0,0,.66-1.18,2.12,2.12,0,0,1,.26-.66,1.45,1.45,0,0,1,1.24-.34,2.86,2.86,0,0,0-.78-.3.78.78,0,0,0-.69.2c-.31.34-.16.88-.34,1.3a2.54,2.54,0,0,1-.47.62,2.6,2.6,0,0,0-.6,1.52.25.25,0,0,1,0,.17c-.08.1-.23.06-.34,0a3.52,3.52,0,0,0-1.64-.19,3.48,3.48,0,0,0-1.63.19c-.12,0-.27.09-.35,0a.33.33,0,0,1,0-.17,2.6,2.6,0,0,0-.6-1.52,2.54,2.54,0,0,1-.47-.62c-.18-.42,0-1-.33-1.3a.79.79,0,0,0-.69-.2,2.8,2.8,0,0,0-.79.3,1.45,1.45,0,0,1,1.24.34,2.14,2.14,0,0,1,.27.66,5.08,5.08,0,0,0,.66,1.18,3.2,3.2,0,0,1,.54,1.24,1.24,1.24,0,0,1-.48,1.2A6.46,6.46,0,0,1,14.8,8.29Z" fill="#f9ad00"/><path d="M14.8,17.47a1.66,1.66,0,0,0,.65-.25.39.39,0,0,1,.26-.12.34.34,0,0,1,.22.13,1.82,1.82,0,0,1,.36.51.62.62,0,0,1,.06.44.65.65,0,0,1-.4.32,3.6,3.6,0,0,1-1.15.29,3.6,3.6,0,0,1-1.15-.29.63.63,0,0,1-.39-.32.57.57,0,0,1,.06-.44,1.78,1.78,0,0,1,.35-.51.34.34,0,0,1,.22-.13c.1,0,.18.06.27.12A1.62,1.62,0,0,0,14.8,17.47Z" fill="#f9cc13"/><path d="M14.51,21.14a1.18,1.18,0,0,0,.59,0l.41-.12a3.93,3.93,0,0,0,1.8-1.19.69.69,0,0,1,.24-.21c.27-.11.56.2.71.37a1,1,0,0,1,.11.17c.13.38-.22.63-.53.8l-.78.42a5.43,5.43,0,0,1-.85.39,11.75,11.75,0,0,1-1.34.26H14.8L14.24,22a4.75,4.75,0,0,1-.85-.18,4.94,4.94,0,0,1-.84-.39l-1-.51a.92.92,0,0,1-.31-.28c-.2-.32,0-.55.17-.73s.39-.32.6-.24a.76.76,0,0,1,.23.21A4,4,0,0,0,14.09,21C14.23,21.07,14.37,21.1,14.51,21.14Z" fill="#f9cc13"/><path d="M14.8,17.71a.62.62,0,0,0,.37-.09.56.56,0,0,1,.46-.11.55.55,0,0,1,.18.16.59.59,0,0,1,.12.2c0,.2-.18.36-.38.43a2.37,2.37,0,0,1-.75.09,2.37,2.37,0,0,1-.75-.09c-.2-.07-.42-.23-.38-.43a.59.59,0,0,1,.12-.2.49.49,0,0,1,.19-.16.57.57,0,0,1,.46.11A.61.61,0,0,0,14.8,17.71Z" fill="#ffdc19"/><path d="M14.8,21.46A3.69,3.69,0,0,0,16.18,21a4.09,4.09,0,0,0,.93-.71c.19-.18.42-.4.67-.34a.38.38,0,0,1,.19.6.66.66,0,0,1-.22.15l-1,.52a4.05,4.05,0,0,1-3.9,0l-1-.52a.66.66,0,0,1-.22-.15.39.39,0,0,1,.19-.6c.26-.06.48.16.67.34a4.58,4.58,0,0,0,.93.71A3.75,3.75,0,0,0,14.8,21.46Z" fill="#ffdc19"/><path d="M14.8,25a7.23,7.23,0,0,0,3.28-1.17c.51-.34,1-.75,1.5-1.06a.53.53,0,0,1,.29-.1c1.17,0-.93,2.3-1.22,2.51a6.73,6.73,0,0,1-7.7,0c-.29-.21-2.39-2.48-1.22-2.51a.51.51,0,0,1,.29.1c.54.31,1,.72,1.51,1.06A7.2,7.2,0,0,0,14.8,25Z" fill="url(#c)"/><path d="M24.4,8.59a12.16,12.16,0,0,1,4.08.22,7.73,7.73,0,0,1-1.67.08c-.8,0-1.54.32-2.3.37A.56.56,0,0,0,24.4,8.59Z" fill="#ffdc19"/><path d="M5.21,8.59a12.22,12.22,0,0,0-4.09.22,7.73,7.73,0,0,0,1.67.08c.8,0,1.54.32,2.3.37A.56.56,0,0,1,5.21,8.59Z" fill="#ffdc19"/><path d="M26.41,21.06a34.63,34.63,0,0,0-2.13-3.81c.29.45-.89.81-1.14.76.34.49,1.17.87,1.63,1.32S25.84,20.51,26.41,21.06Z" fill="#ffdc19"/><path d="M3.19,21.06a34.63,34.63,0,0,1,2.13-3.81c-.29.45.89.81,1.14.76-.34.49-1.17.87-1.62,1.32S3.77,20.51,3.19,21.06Z" fill="#ffdc19"/><path d="M25.15,10.31a2.24,2.24,0,0,0,1.81,0,5.69,5.69,0,0,0,1.57-1,2.89,2.89,0,0,1-.63.89,7.81,7.81,0,0,1-2.63,2.26c-.07-.28.25-.71.26-1.05A1.67,1.67,0,0,0,25.15,10.31Z" fill="#ffdc19"/><path d="M4.45,10.31a2.24,2.24,0,0,1-1.81,0,5.64,5.64,0,0,1-1.56-1,2.7,2.7,0,0,0,.62.89,8,8,0,0,0,2.63,2.26c.07-.28-.25-.71-.26-1.05A1.67,1.67,0,0,1,4.45,10.31Z" fill="#ffdc19"/><path d="M22.86,21.39a12.32,12.32,0,0,0,1.9.39,8.55,8.55,0,0,0,1.6.11,17.92,17.92,0,0,1-2-1.61c-1.17,1.12-3.44,0-4.66-.54A8.37,8.37,0,0,0,22.86,21.39Z" fill="#ffdc19"/><path d="M6.75,21.39a12.69,12.69,0,0,1-1.91.39,8.55,8.55,0,0,1-1.6.11,17.92,17.92,0,0,0,2-1.61c1.17,1.12,3.45,0,4.66-.54A8.33,8.33,0,0,1,6.75,21.39Z" fill="#ffdc19"/><path d="M29.56,8.75l-.2-.09a7.58,7.58,0,0,0-.8-.28,13.14,13.14,0,0,0-2.14-.45,13,13,0,0,0-4.35.27,13.16,13.16,0,0,0-2.8,1A1.51,1.51,0,0,0,19,8.94a5.08,5.08,0,0,0-.5-.44A4.72,4.72,0,0,0,18,8.14V8.08a1.1,1.1,0,0,1,0-.31A2.36,2.36,0,0,1,18,7.12a2.48,2.48,0,0,1,.25-.58c.09-.15.21-.27.31-.41l0,0a1.42,1.42,0,0,0,.86.14,1.17,1.17,0,0,0,.67-.36,1.15,1.15,0,0,0,.27-.89,1.48,1.48,0,0,0-.86-1.15,1.39,1.39,0,0,0-1.48.1,1.1,1.1,0,0,0-.3,1,1.42,1.42,0,0,0,.12.46h0a2.22,2.22,0,0,0-.33.28,3.33,3.33,0,0,0-.52.71,3.32,3.32,0,0,0-.34.8c0,.12-.05.25-.07.37a6.53,6.53,0,0,0-1.82-.15A6.46,6.46,0,0,0,13,7.59c0-.12-.05-.25-.08-.37a3.51,3.51,0,0,0-.86-1.51,2.79,2.79,0,0,0-.32-.28h0A1.41,1.41,0,0,0,11.83,5a1,1,0,0,0-.3-1,1.39,1.39,0,0,0-1.48-.1A1.49,1.49,0,0,0,9.2,5.05a1.14,1.14,0,0,0,.26.89,1.19,1.19,0,0,0,.68.36A1.39,1.39,0,0,0,11,6.16l0,0a4,4,0,0,1,.31.41,2.48,2.48,0,0,1,.25.58,2.36,2.36,0,0,1,.07.65,1.63,1.63,0,0,1,0,.31.13.13,0,0,0,0,.06,3.9,3.9,0,0,0-.54.36,3.5,3.5,0,0,0-.5.44,1.55,1.55,0,0,0-.25.26,13.16,13.16,0,0,0-2.8-1,13,13,0,0,0-4.35-.27,12.8,12.8,0,0,0-2.13.45,7,7,0,0,0-.81.28l-.19.09,0,0L.15,9a14.64,14.64,0,0,0,1.32,1.9A12.26,12.26,0,0,0,4.3,13.46a9.74,9.74,0,0,0,2.4,1.18l-.16.14-.41.39c-.26.27-.51.54-.75.82A15.44,15.44,0,0,0,3.2,19.4a11.84,11.84,0,0,0-.91,2.85c0,.08,0,.17,0,.26h.24a15.73,15.73,0,0,0,3.43-.17,9.85,9.85,0,0,0,1.93-.53,5.27,5.27,0,0,0,.07.78c.53,3.46,4.25,5.67,6.89,5.67s6.37-2.21,6.89-5.67a5.27,5.27,0,0,0,.07-.78,10,10,0,0,0,1.93.53,15.76,15.76,0,0,0,3.43.17h.24c0-.09,0-.18,0-.26a11.87,11.87,0,0,0-.92-2.85A15.09,15.09,0,0,0,24.22,16c-.24-.28-.49-.55-.75-.82l-.41-.39a1.07,1.07,0,0,0-.16-.14,10,10,0,0,0,2.41-1.18,12.42,12.42,0,0,0,2.82-2.55A15.77,15.77,0,0,0,29.46,9c.05-.08.1-.16.14-.24ZM18.28,4.42a.7.7,0,0,1,.46-.23,1,1,0,0,1,.51.06,1.12,1.12,0,0,1,.68.68.79.79,0,0,1-.05.62.71.71,0,0,1-.41.29.89.89,0,0,1-.6-.06,1.12,1.12,0,0,1-.29-.19,4,4,0,0,1-.33-.24h0v0a0,0,0,0,0,0,0,1.55,1.55,0,0,1,0-.21A1,1,0,0,1,18.28,4.42ZM17,7.32a3,3,0,0,1,.29-.75,3.39,3.39,0,0,1,.46-.66L18,5.64a1.14,1.14,0,0,0,.15.16l.08.09.08.08a2.2,2.2,0,0,0-.33.35,2.58,2.58,0,0,0-.35.68,2.13,2.13,0,0,0-.11.75.86.86,0,0,0,0,.16l-.17-.08a3.26,3.26,0,0,0-.44-.15A2.29,2.29,0,0,1,17,7.32ZM11,5.59a1,1,0,0,1-.29.19.86.86,0,0,1-.59.06.68.68,0,0,1-.41-.29.79.79,0,0,1-.05-.62,1.1,1.1,0,0,1,.67-.68,1,1,0,0,1,.52-.06.68.68,0,0,1,.45.23,1,1,0,0,1,.09.65,1.55,1.55,0,0,1,0,.21,0,0,0,0,0,0,0v0h0A4,4,0,0,1,11,5.59Zm.59.73A1.83,1.83,0,0,0,11.28,6l.09-.08.07-.09a.75.75,0,0,0,.15-.16l.26.27a3,3,0,0,1,.46.66,3.46,3.46,0,0,1,.3.75c0,.12.05.24.07.36a4,4,0,0,0-.45.15l-.16.08s0-.11,0-.16A2.4,2.4,0,0,0,12,7,2.31,2.31,0,0,0,11.61,6.32ZM11.1,9.38A4.55,4.55,0,0,1,11.54,9a4.83,4.83,0,0,1,2.09-.87A11.63,11.63,0,0,1,14.8,8,11.31,11.31,0,0,1,16,8.14a4.87,4.87,0,0,1,2.1.87c.12.09.29.24.43.37l.14.15-.44.26a13.41,13.41,0,0,0-3,2.51c-.15.17-.3.34-.44.52-.14-.18-.29-.35-.44-.52a13.18,13.18,0,0,0-3-2.51L11,9.53Zm5.76,8.94a3.79,3.79,0,0,1-.34.2,6.24,6.24,0,0,1-.76.28A7.49,7.49,0,0,1,15,19l-.17,0-.16,0a7.13,7.13,0,0,1-.8-.18,6.92,6.92,0,0,1-.76-.28,2.63,2.63,0,0,1-.33-.2l0,0a12.67,12.67,0,0,0,1.11-1.6,10.78,10.78,0,0,0,.74-1.53c.08-.18.15-.37.22-.57.07.2.15.39.22.57a12,12,0,0,0,.74,1.53,11.78,11.78,0,0,0,1.12,1.6Zm.25.25a9.85,9.85,0,0,0,.7.74,12.52,12.52,0,0,0,1.26,1.05l-.09.09a3.88,3.88,0,0,1-.42.39,5.57,5.57,0,0,1-.93.58,5,5,0,0,1-.52.25l-.2.09-.28.11a10.42,10.42,0,0,1-1.21.35l-.4.07-.22,0-.22,0-.4-.07a10.26,10.26,0,0,1-1.2-.35l-.29-.11-.2-.09c-.17-.07-.34-.16-.51-.25a5.66,5.66,0,0,1-.94-.58,5.11,5.11,0,0,1-.42-.39l-.09-.09a12.52,12.52,0,0,0,1.26-1.05c.24-.23.48-.48.71-.74a4,4,0,0,0,.26.32,2.17,2.17,0,0,0,.81.52,4,4,0,0,0,.89.22l.26,0a.21.21,0,0,0,.08,0,.22.22,0,0,0,.08,0l.27,0a3.78,3.78,0,0,0,.88-.22,2.17,2.17,0,0,0,.81-.52A2.69,2.69,0,0,0,17.11,18.57ZM.43,8.94v0l.31-.1a8.6,8.6,0,0,1,1-.25,16,16,0,0,1,2.07-.22A13.87,13.87,0,0,1,8,8.83a12.69,12.69,0,0,1,2.33.92l.09.05c.4.21.79.45,1.17.7a12.93,12.93,0,0,1,2.36,2.07h0l-.42-.2c-.51-.23-1-.46-1.54-.67A40.15,40.15,0,0,0,6.28,9.82c-1-.24-2-.44-2.95-.6-.49-.07-1-.13-1.49-.18S.9,9,.43,8.94Zm3.75,3.75a13.58,13.58,0,0,1-2.73-2.46C1.14,9.87.85,9.5.57,9.12h0L2,9.34l1.62.29a42.15,42.15,0,0,1,5.77,1.5c.94.32,1.87.67,2.79,1.06l1.35.6.67.33.13.07h0c-.28.12-.53.3-.8.44s-.5.23-.77.34a8.23,8.23,0,0,1-1.76.43h-.07l-.11,0-.21,0-.45,0c-.31,0-.62,0-.93,0l-.45,0-.4,0c-.31-.05-.61-.12-.91-.19A10.6,10.6,0,0,1,4.18,12.69ZM2.61,22.1c.11-.31.21-.63.33-.94a16.24,16.24,0,0,1,1.8-3.49,13.62,13.62,0,0,1,1.19-1.53q.33-.37.69-.72a2.93,2.93,0,0,0,.59-.63c.2.06.39.1.59.14a9.85,9.85,0,0,0,3.59.07h0a30.16,30.16,0,0,0-4.79,3.14,29.62,29.62,0,0,0-2.22,2,22.37,22.37,0,0,0-1.78,2ZM5.3,22a22.27,22.27,0,0,1-2.58.23c.7-.74,1.4-1.48,2.16-2.17a28.81,28.81,0,0,1,4.7-3.52,28.25,28.25,0,0,1,2.6-1.4l1.33-.58.68-.27.14,0h0l0,.07a8.89,8.89,0,0,1-.32.86,9.63,9.63,0,0,1-.81,1.56A11.61,11.61,0,0,1,8.51,21,11.34,11.34,0,0,1,5.3,22Zm13,4.28a7.35,7.35,0,0,1-3.5,1.1,7.42,7.42,0,0,1-3.5-1.1,6,6,0,0,1-3.06-4.62,11.6,11.6,0,0,0,2-1.08l0,.09a4.05,4.05,0,0,0,.43.57,4.15,4.15,0,0,0,1,.79,6.74,6.74,0,0,0,1.2.53,9.2,9.2,0,0,0,1.34.37l.45,0h.23l.44,0a8.55,8.55,0,0,0,1.34-.37A6.44,6.44,0,0,0,17.9,22a4,4,0,0,0,1-.79,2.94,2.94,0,0,0,.43-.57l.06-.09a11.24,11.24,0,0,0,2,1.08A6,6,0,0,1,18.3,26.28Zm6-4.28a11.28,11.28,0,0,1-3.2-1,11.58,11.58,0,0,1-4.67-4.24,10.49,10.49,0,0,1-.81-1.56c-.12-.28-.22-.57-.32-.86,0,0,0-.05,0-.07h0l.13,0,.69.27c.44.19.89.38,1.32.58a28.25,28.25,0,0,1,2.6,1.4,28.89,28.89,0,0,1,4.71,3.52c.75.69,1.45,1.43,2.15,2.17A22.47,22.47,0,0,1,24.3,22ZM23,15.42q.36.35.69.72a13.7,13.7,0,0,1,1.2,1.53,16.67,16.67,0,0,1,1.79,3.49c.12.31.23.63.33.94h0a19.63,19.63,0,0,0-1.78-2,26.13,26.13,0,0,0-2.22-2A29.28,29.28,0,0,0,18.2,15h0a9.85,9.85,0,0,0,3.59-.07,5.63,5.63,0,0,0,.59-.14A3.2,3.2,0,0,0,23,15.42ZM29,9.12c-.28.38-.58.75-.89,1.11a13.8,13.8,0,0,1-2.72,2.46,10.6,10.6,0,0,1-3.28,1.5c-.3.07-.61.14-.91.19l-.4,0-.46,0c-.3,0-.61,0-.92,0l-.45,0-.22,0-.11,0h-.07A8,8,0,0,1,16.86,14a7.51,7.51,0,0,1-.77-.34c-.27-.14-.53-.32-.81-.44h0l.13-.07.68-.33q.66-.31,1.35-.6c.91-.39,1.84-.74,2.78-1.06A42.91,42.91,0,0,1,26,9.63l1.63-.29L29,9.12Zm.13-.18h0c-.47,0-.94.05-1.41.1s-1,.11-1.49.18c-1,.16-2,.36-2.95.6a39.61,39.61,0,0,0-5.7,1.88c-.52.21-1,.44-1.54.67l-.42.2h0A13.27,13.27,0,0,1,18,10.5c.38-.25.77-.49,1.17-.7l.09-.05a12.69,12.69,0,0,1,2.33-.92,13.91,13.91,0,0,1,4.16-.49,16.12,16.12,0,0,1,2.08.22,9.64,9.64,0,0,1,1,.25l.31.1Z" fill="#4e2400"/></g></svg>