<svg xmlns="http://www.w3.org/2000/svg" width="27.22" height="24" viewBox="0 0 27.22 24"><path d="M27.08,5.93a.39.39,0,0,0-.38,0L18.55,9.27,13.91.2a.41.41,0,0,0-.34-.2.36.36,0,0,0-.33.21L8.52,9.64l-8-3.46a.36.36,0,0,0-.37.05A.37.37,0,0,0,0,6.58L2.25,20.91a.38.38,0,0,0,.37.31H24.07a.38.38,0,0,0,.37-.3L27.21,6.29A.36.36,0,0,0,27.08,5.93ZM23.76,20.47H3L.85,7.14l7.7,3.33A.37.37,0,0,0,9,10.29l4.55-9.08L18,9.92a.38.38,0,0,0,.48.17l7.83-3.25Zm.57,2.78H2.89a.38.38,0,1,0,0,.75H24.33a.38.38,0,1,0,0-.75Zm-7.9-9.39-1.72-.25L14,12.06a.38.38,0,0,0-.68,0l-.76,1.55-1.72.25a.37.37,0,0,0-.3.26.38.38,0,0,0,.09.38l1.25,1.21-.3,1.71a.38.38,0,0,0,.15.36.36.36,0,0,0,.4,0l1.53-.8,1.53.8a.41.41,0,0,0,.18.05.37.37,0,0,0,.22-.08.38.38,0,0,0,.15-.36l-.29-1.71,1.24-1.21a.36.36,0,0,0,.09-.38A.37.37,0,0,0,16.43,13.86Zm-1.7,1.45a.38.38,0,0,0-.11.33l.2,1.16-1-.55a.36.36,0,0,0-.35,0l-1,.55.2-1.16a.38.38,0,0,0-.11-.33l-.84-.82,1.16-.17a.35.35,0,0,0,.28-.2l.52-1,.52,1a.35.35,0,0,0,.28.2l1.16.17Z" fill="#dcaa00"/></svg>