<svg xmlns="http://www.w3.org/2000/svg" xmlns:xlink="http://www.w3.org/1999/xlink" width="123.54" height="37.39" viewBox="0 0 123.54 37.39"><defs><linearGradient id="a" x1="78.37" y1="15.59" x2="92.88" y2="15.59" gradientUnits="userSpaceOnUse"><stop offset="0.05" stop-color="#f4419a"/><stop offset="0.2" stop-color="#f5449b"/><stop offset="0.31" stop-color="#f74da0"/><stop offset="0.41" stop-color="#fa5da7"/><stop offset="0.49" stop-color="#ff73b2"/><stop offset="0.5" stop-color="#ff75b3"/><stop offset="0.53" stop-color="#fe6fb0"/><stop offset="0.68" stop-color="#f856a4"/><stop offset="0.82" stop-color="#f5469d"/><stop offset="0.94" stop-color="#f4419a"/></linearGradient><linearGradient id="b" x1="78.32" y1="15.61" x2="92.93" y2="15.61" gradientUnits="userSpaceOnUse"><stop offset="0.09" stop-color="#ee278a"/><stop offset="0.21" stop-color="#ef2a8c"/><stop offset="0.29" stop-color="#f13390"/><stop offset="0.37" stop-color="#f44399"/><stop offset="0.44" stop-color="#f959a4"/><stop offset="0.5" stop-color="#ff75b3"/><stop offset="0.62" stop-color="#f855a2"/><stop offset="0.74" stop-color="#f33c95"/><stop offset="0.85" stop-color="#ef2c8d"/><stop offset="0.94" stop-color="#ee278a"/></linearGradient><linearGradient id="c" x1="78.37" y1="16.53" x2="92.88" y2="16.53" xlink:href="#b"/></defs><rect width="123.54" height="37.39" fill="#fff"/><path d="M14.87,21.76a1.83,1.83,0,0,1-.32-1.23V14.19h1.91V12.63H14.55V9.81H12.43v2.82h-1.2v1.56h1.2v7.09a2.55,2.55,0,0,0,.74,2.12,3.66,3.66,0,0,0,2.2.55h1.22V22.08h-.72A1.23,1.23,0,0,1,14.87,21.76Zm38.52-.08a1.91,1.91,0,0,1-.33-1.28V9.05H50.87V21.18a2.57,2.57,0,0,0,.77,2.19,3.71,3.71,0,0,0,2.27.58h1V22h-.45A1.29,1.29,0,0,1,53.39,21.68Zm-32-9.22a4.31,4.31,0,0,0-2.94,1,3.38,3.38,0,0,0-1,2.56v4.63a3.29,3.29,0,0,0,1,2.55,4.35,4.35,0,0,0,2.94,1,4.41,4.41,0,0,0,2.77-.81,3.68,3.68,0,0,0,1.19-2.26l-2.12-.32a2.65,2.65,0,0,1-.63,1.17,2,2,0,0,1-1.21.37,1.83,1.83,0,0,1-1.33-.51,1.92,1.92,0,0,1-.46-1.31v-1.2c0-.06,0-.09.1-.09h5.65V16a3.4,3.4,0,0,0-1-2.56A4.26,4.26,0,0,0,21.42,12.46Zm1.8,4.93H19.63V16.12a1.92,1.92,0,0,1,.46-1.31,1.83,1.83,0,0,1,1.33-.51,1.87,1.87,0,0,1,1.35.51,1.91,1.91,0,0,1,.45,1.31Zm37.62-4.75-1.77,7.57s-.5-.15-.64-1l-1.52-6.56H54.57l2,7.64a5.06,5.06,0,0,0,1.69,2.42,12.25,12.25,0,0,1-.72,2.95,1.65,1.65,0,0,1-.68.76,2.77,2.77,0,0,1-1,.21H55.5v1.76h.25a5.93,5.93,0,0,0,2.18-.32,2.38,2.38,0,0,0,1.19-1A10.51,10.51,0,0,0,60,24.73l3.18-12.08ZM35.75,12.4h0a3.55,3.55,0,0,0-2.63,1.09,3.51,3.51,0,0,0-2.57-1.09h0a6.84,6.84,0,0,0-3.73,1V24h2.27V14.78a4.19,4.19,0,0,1,1.33-.26c1.08,0,1.52.92,1.61,1.85V18L32,24h2.31V17.23s0-.4,0-.8c.06-1,.57-1.91,1.5-1.91h.07c1,0,1.32.37,1.37,1.35L37.19,24h2.27l0-7.38s0-.77,0-1.24C39.3,13.61,38,12.4,35.75,12.4Zm9.39.12h0a7.83,7.83,0,0,0-4,1V27.77h2.32V23.13h2c3.16,0,3.9-2,3.9-4.15,0,0,0-2.54,0-3C49.37,13.85,47.4,12.52,45.14,12.52Zm1.91,6.36c0,1.67-.75,2.12-1.65,2.12H43.49V14.84a5.29,5.29,0,0,1,1.71-.39c1.17,0,1.82.5,1.87,1.51Z" fill="#f9419a"/><path d="M112.31,12.39h-2.94l-3.55,4.29V9h-2.35V24h2.35V20l.7-.79,3,4.75h2.69l-4.33-6.35ZM75.57,21.76a1.78,1.78,0,0,1-.32-1.23V14.19h1.91V12.63H75.25V9.81H73.13v2.82H71.92v1.56h1.21v7.09a2.55,2.55,0,0,0,.74,2.12,3.62,3.62,0,0,0,2.2.55h1.22V22.08h-.72A1.21,1.21,0,0,1,75.57,21.76Zm24.87-8.87a5.14,5.14,0,0,0-2.18-.43,4.26,4.26,0,0,0-2.93,1,3.38,3.38,0,0,0-1,2.56v4.6a3.32,3.32,0,0,0,1,2.58,4.31,4.31,0,0,0,2.93,1,4.52,4.52,0,0,0,2.95-.92,3,3,0,0,0,1-2.37v-.61l-2.18-.3v.77a1.51,1.51,0,0,1-.48,1.12,2,2,0,0,1-1.33.46,1.86,1.86,0,0,1-1.33-.51,1.91,1.91,0,0,1-.45-1.31V16.12a1.91,1.91,0,0,1,.45-1.31,1.86,1.86,0,0,1,1.33-.51,2,2,0,0,1,1.33.47,1.49,1.49,0,0,1,.48,1.11v.66l2.18-.37v-.42a3.07,3.07,0,0,0-.46-1.68A3.25,3.25,0,0,0,100.44,12.89ZM69.92,18.25a12.92,12.92,0,0,0-1.54-.77c-.57-.24-1.26-.42-1.52-.54a2.21,2.21,0,0,1-.66-.5,1.16,1.16,0,0,1-.27-.78,1.42,1.42,0,0,1,.41-1,1.83,1.83,0,0,1,1.26-.42,1.71,1.71,0,0,1,1.18.43,2.29,2.29,0,0,1,.71,1.59l1.87-.73a3.68,3.68,0,0,0-1.11-2.11,4,4,0,0,0-2.7-.87,4.19,4.19,0,0,0-2.75.85,2.94,2.94,0,0,0-1,2.35,2.86,2.86,0,0,0,.46,1.69,3.48,3.48,0,0,0,1,1,12.56,12.56,0,0,0,1.47.73c.55.22,1.24.4,1.51.52a2.2,2.2,0,0,1,.69.53,1.17,1.17,0,0,1,.3.82,1.36,1.36,0,0,1-.42,1,1.93,1.93,0,0,1-1.25.4,2.19,2.19,0,0,1-1.33-.41,2.65,2.65,0,0,1-.85-1.69l-1.86.45a3.67,3.67,0,0,0,1.28,2.46,4.88,4.88,0,0,0,2.94.81,3.93,3.93,0,0,0,2.66-.84,2.84,2.84,0,0,0,1-2.29A2.86,2.86,0,0,0,71,19.28,3.65,3.65,0,0,0,69.92,18.25Z" fill="#414655"/><path d="M92.88,17.45l-6.46,3.73a1.63,1.63,0,0,1-1.6,0l-6.45-3.73v1.87a2.41,2.41,0,0,0,1.2,2.08l5.25,3a1.63,1.63,0,0,0,1.6,0l5.26-3a2.41,2.41,0,0,0,1.2-2.08Z" fill="#414655"/><path d="M78.32,17.36l.08,0,6.45,3.73a1.54,1.54,0,0,0,1.55,0l6.53-3.77v2a2.44,2.44,0,0,1-1.23,2.12l-5.25,3a1.67,1.67,0,0,1-1.65,0l-5.26-3a2.46,2.46,0,0,1-1.22-2.12Zm7.3,4.08a1.6,1.6,0,0,1-.82-.22l-6.38-3.69v1.79a2.34,2.34,0,0,0,1.17,2l5.26,3a1.54,1.54,0,0,0,1.55,0l5.25-3a2.32,2.32,0,0,0,1.17-2V17.53l-6.37,3.69A1.64,1.64,0,0,1,85.62,21.44Z" fill="#2d3243"/><path d="M92.88,18.83l-6.46,3.73a1.63,1.63,0,0,1-1.6,0l-6.45-3.73V17.45l6.45,3.73a1.63,1.63,0,0,0,1.6,0l6.46-3.73Z" fill="#2d3243"/><path d="M78.37,19.19l6.45-3.73a1.63,1.63,0,0,1,1.6,0l6.46,3.73V17.31a2.4,2.4,0,0,0-1.2-2.07l-5.26-3a1.63,1.63,0,0,0-1.6,0l-5.25,3a2.4,2.4,0,0,0-1.2,2.07Z" fill="url(#a)"/><path d="M92.93,19.28l-.08,0L86.4,15.51a1.54,1.54,0,0,0-1.55,0l-6.53,3.77v-2a2.44,2.44,0,0,1,1.22-2.11l5.26-3a1.63,1.63,0,0,1,1.65,0l5.26,3a2.44,2.44,0,0,1,1.22,2.11ZM85.62,15.2a1.64,1.64,0,0,1,.83.22l6.37,3.68V17.31a2.34,2.34,0,0,0-1.17-2l-5.25-3a1.54,1.54,0,0,0-1.55,0l-5.26,3a2.36,2.36,0,0,0-1.17,2V19.1l6.38-3.68A1.6,1.6,0,0,1,85.62,15.2Z" fill="url(#b)"/><path d="M78.37,17.81l6.45-3.73a1.58,1.58,0,0,1,1.6,0l6.46,3.73v1.38l-6.46-3.73a1.63,1.63,0,0,0-1.6,0l-6.45,3.73Z" fill="url(#c)"/></svg>