<svg xmlns="http://www.w3.org/2000/svg" width="22.77" height="24" viewBox="0 0 22.77 24"><path d="M15.72,24l-2,0c-1.5,0-3.16,0-4.66,0-3.89.05-7,.09-8.32-1.26A2.43,2.43,0,0,1,0,20.89c0-3.37,5-6,11.38-6s11.39,2.64,11.39,6A2.47,2.47,0,0,1,22,22.72C20.92,23.83,18.65,24,15.72,24Zm-4.34-1.29h2.35c3.45.05,6.44.08,7.43-.89a1.24,1.24,0,0,0,.35-.94c0-2.58-4.64-4.75-10.13-4.75S1.26,18.31,1.26,20.89a1.24,1.24,0,0,0,.35.94c1,1,4,.94,7.43.89Zm0-9.64a6.54,6.54,0,1,1,6.54-6.54A6.55,6.55,0,0,1,11.38,13.07Zm0-11.81a5.28,5.28,0,1,0,5.28,5.27A5.28,5.28,0,0,0,11.38,1.26Z" fill="#aaa5a0"/></svg>