<svg xmlns="http://www.w3.org/2000/svg" width="109.32" height="15.71" viewBox="0 0 109.32 15.71"><path d="M104.75,9.48a1.72,1.72,0,0,0,.15.72,1.92,1.92,0,0,0,.39.57,1.65,1.65,0,0,0,.58.37,2.07,2.07,0,0,0,.7.13h2.32a.38.38,0,0,1,.3.13.46.46,0,0,1,0,.64.42.42,0,0,1-.3.13h-2.32a2.63,2.63,0,0,1-2.46-1.62,2.69,2.69,0,0,1-.22-1.07V7.4a2.73,2.73,0,0,1,.22-1.07,2.56,2.56,0,0,1,1.42-1.42,2.64,2.64,0,0,1,1-.2h2.32a.38.38,0,0,1,.3.13.46.46,0,0,1,0,.64.41.41,0,0,1-.3.12h-2.32a2.07,2.07,0,0,0-.7.13,1.8,1.8,0,0,0-.58.37,1.92,1.92,0,0,0-.39.57,1.77,1.77,0,0,0-.15.73Z"/><path d="M98.77,11.4a.41.41,0,0,0-.31-.14H96.4V5.13a.37.37,0,0,0-.14-.31A.44.44,0,0,0,96,4.69a.46.46,0,0,0-.32.13.39.39,0,0,0-.13.31v6.61a.28.28,0,0,0,0,.13v0a.43.43,0,0,1,0,.07l.05.07a.43.43,0,0,0,.31.14h2.53a.41.41,0,0,0,.31-.14.47.47,0,0,0,.12-.31A.44.44,0,0,0,98.77,11.4Z"/><path d="M103.55,11.4a.43.43,0,0,0-.31-.14h-2.06V5.13a.4.4,0,0,0-.14-.31.46.46,0,0,0-.31-.13.44.44,0,0,0-.32.13.39.39,0,0,0-.13.31v6.61a.28.28,0,0,0,0,.13v0a.43.43,0,0,1,0,.07l.05.07a.43.43,0,0,0,.31.14h2.53a.43.43,0,0,0,.31-.14.47.47,0,0,0,.12-.31A.44.44,0,0,0,103.55,11.4Z"/><path d="M2.55,12.32a4.5,4.5,0,0,0-2.1,1.06c-.31.28-.54.62-.41.88a8.76,8.76,0,0,0,.49,1.07c.22.34.3.45.46.34A8.77,8.77,0,0,0,2.8,12.55C2.82,12.35,2.73,12.3,2.55,12.32ZM14.86,0a21.06,21.06,0,0,0-3.59.48c-3.16.56-7,1.68-8.87,4.2A5.36,5.36,0,0,0,3,11.9c1.63,1.78,5.06,1.87,7.56-.23,1.83-1.54,2.81-4.44,3.43-7.24.23-1,.49-2.11.65-3C14.77.88,15,.05,14.86,0Z" fill="#90c232"/><path d="M29.06,4.57a3.94,3.94,0,0,0-3.53,1.86,4,4,0,0,0-.49,2A4.27,4.27,0,0,0,26,11.12a3.69,3.69,0,0,0,2.89,1.21A3.48,3.48,0,0,0,31.92,11a.65.65,0,0,0-1-.81,2.71,2.71,0,0,1-1.95.85A2.47,2.47,0,0,1,26.61,9h5.13c.36,0,.79-.27.72-1s-.86-3.42-3.4-3.42m-2.43,3.2a2.25,2.25,0,0,1,2.25-2,2.05,2.05,0,0,1,2,2ZM47.1,4.57a3.91,3.91,0,0,0-3.52,1.86,4.07,4.07,0,0,0-.5,2A4.27,4.27,0,0,0,44,11.12a3.71,3.71,0,0,0,2.89,1.21A3.47,3.47,0,0,0,50,11a.65.65,0,0,0-1-.81,2.69,2.69,0,0,1-2,.85A2.47,2.47,0,0,1,44.65,9h5.13c.36,0,.79-.27.72-1s-.86-3.42-3.4-3.42m-2.43,3.2a2.26,2.26,0,0,1,2.25-2,2.05,2.05,0,0,1,2,2Zm-6.6-3.08a3.22,3.22,0,0,0-.81-.12A2.66,2.66,0,0,0,35,5.77V5.54c0-.84-.53-1-.78-1a.68.68,0,0,0-.76.73v6.05c0,.8.37,1,.7,1a.85.85,0,0,0,.84-1V8.05A2.28,2.28,0,0,1,36,6.11a2.19,2.19,0,0,1,1.74,0,.71.71,0,1,0,.29-1.39M24.14,4.64a.88.88,0,0,0-1.2.56l-2,5.19c0,.06-.06.07-.09,0l-2-5.19a.88.88,0,0,0-1.2-.56c-.36.21-.48.53-.29,1.13l2.35,5.64a1.23,1.23,0,0,0,1.2.92c.62,0,.92-.22,1.21-.92l2.35-5.64c.19-.6.07-.92-.29-1.13M42.69,11c-.31-.23-.55,0-1,0-.65.05-.83-.65-.83-1.09V5.77H42c1,0,1-1.2.13-1.2H40.87V3.4c0-.68-.34-.94-.73-.94s-.81.26-.81.94V9.61a2.7,2.7,0,0,0,.77,2.25,2.37,2.37,0,0,0,2.31.29c.68-.28.6-.91.28-1.13m12.5-2.64,2.1-2.45c.46-.54.41-.9.16-1.19s-.72-.4-1.3.27L54.28,7.23,52.52,5a.93.93,0,0,0-1.37-.33c-.33.3-.39.65-.06,1.23l2.1,2.61-2,2.37c-.55.55-.51,1.07-.21,1.31s.82.15,1.24-.34l1.9-2.21,1.77,2.21a1,1,0,0,0,1.3.38c.34-.2.54-.75,0-1.34Z"/><path d="M67.82,5.45A2.69,2.69,0,0,0,67,4.88a2.61,2.61,0,0,0-1.08-.22,2.54,2.54,0,0,0-1.21.27,3.21,3.21,0,0,0-.89.71,2.52,2.52,0,0,0-.87-.71,2.63,2.63,0,0,0-1.23-.27,2.58,2.58,0,0,0-1.08.22,2.62,2.62,0,0,0-1.42,1.43,2.75,2.75,0,0,0-.2,1v4.43a.38.38,0,0,0,.13.3.42.42,0,0,0,.32.13.44.44,0,0,0,.32-.13.38.38,0,0,0,.13-.3V7.35a2.07,2.07,0,0,1,.13-.7,1.65,1.65,0,0,1,.37-.58,1.72,1.72,0,0,1,.58-.4,1.69,1.69,0,0,1,.72-.15,1.6,1.6,0,0,1,.7.15,1.48,1.48,0,0,1,.52.4,2,2,0,0,1,.32.57,2.3,2.3,0,0,1,.11.71v4.43a.38.38,0,0,0,.13.3.42.42,0,0,0,.32.13.41.41,0,0,0,.32-.13.38.38,0,0,0,.13-.3V7.35a2.33,2.33,0,0,1,.11-.7,1.55,1.55,0,0,1,.32-.58,1.48,1.48,0,0,1,.52-.4,1.54,1.54,0,0,1,.7-.15,1.77,1.77,0,0,1,.73.15,1.68,1.68,0,0,1,.57.4,1.65,1.65,0,0,1,.37.58,1.85,1.85,0,0,1,.13.7v4.43a.42.42,0,0,0,.13.3.46.46,0,0,0,.64,0,.38.38,0,0,0,.13-.3V7.35a2.57,2.57,0,0,0-.2-1A2.61,2.61,0,0,0,67.82,5.45ZM75,5.57a.44.44,0,0,0,.32-.13.41.41,0,0,0,.13-.3.4.4,0,0,0-.13-.31A.48.48,0,0,0,75,4.7H70.21a.46.46,0,0,0-.32.13.4.4,0,0,0-.13.31v6.64a.36.36,0,0,0,.14.3.4.4,0,0,0,.31.13H75a.44.44,0,0,0,.32-.13.41.41,0,0,0,.13-.3.39.39,0,0,0-.13-.31.44.44,0,0,0-.32-.13H70.66V9h2.53a.46.46,0,0,0,.46-.43.43.43,0,0,0-.14-.31.44.44,0,0,0-.32-.12H70.66V5.57Zm6.29-.08a2.75,2.75,0,0,0-.91-.57,3,3,0,0,0-1.11-.22H76.88a.44.44,0,0,0-.32.13.4.4,0,0,0-.13.31v6.64a.38.38,0,0,0,.13.3.44.44,0,0,0,.32.13h2.39a2.91,2.91,0,0,0,1.1-.21,2.84,2.84,0,0,0,.9-.58,2.8,2.8,0,0,0,.6-.84,2.47,2.47,0,0,0,.23-1V7.38a2.4,2.4,0,0,0-.23-1A2.73,2.73,0,0,0,81.27,5.49Zm-.07,4a1.56,1.56,0,0,1-.16.7,1.77,1.77,0,0,1-.4.58,2,2,0,0,1-.62.38,1.86,1.86,0,0,1-.75.14H77.33V5.57h1.92a2.15,2.15,0,0,1,.77.14,2.1,2.1,0,0,1,.62.39,1.64,1.64,0,0,1,.4.57,1.57,1.57,0,0,1,.16.71ZM84,4.7a.44.44,0,0,0-.32.13.41.41,0,0,0-.14.31v6.64a.39.39,0,0,0,.14.3.46.46,0,0,0,.64,0,.38.38,0,0,0,.13-.3V5.14a.38.38,0,0,0-.14-.31A.46.46,0,0,0,84,4.7Zm8.38,6.92-3-6.7a.4.4,0,0,0-.24-.22.39.39,0,0,0-.18,0,.43.43,0,0,0-.42.26l-3,6.7a.58.58,0,0,0,0,.18.41.41,0,0,0,.12.28.42.42,0,0,0,.33.14.44.44,0,0,0,.24-.07.45.45,0,0,0,.17-.19L89,6.17,91.61,12a.41.41,0,0,0,.41.26.4.4,0,0,0,.32-.14.41.41,0,0,0,.12-.28A.39.39,0,0,0,92.42,11.62Z"/></svg>