<svg xmlns="http://www.w3.org/2000/svg" width="26.5" height="27" viewBox="0 0 26.5 27"><path d="M15.6,5.64a7.86,7.86,0,0,1,3.17,1.63l3.79-3.8c-.12-.1-.26-.25-.42-.37A13,13,0,0,0,11.49.19,13.42,13.42,0,0,0,3.83,4L7.7,7.88A7.82,7.82,0,0,1,15.6,5.64Z" fill="#cc4231"/><path d="M23,23.24a14.15,14.15,0,0,0,3.54-9.89c0-.72-.12-1.44-.18-2.18H13.38v5.11h7.5c-.07.23-.12.39-.18.55a7.65,7.65,0,0,1-1.63,2.61L23,23.24Z" fill="#5981f4"/><path d="M6.06,16.63A7.65,7.65,0,0,1,7.5,8.1l.2-.22L3.83,4a13.83,13.83,0,0,0-3,5.18A12.82,12.82,0,0,0,3.86,22.86h0L7.54,19A8.66,8.66,0,0,1,6.06,16.63Z" fill="#eabb00"/><path d="M15.74,26.85A11.36,11.36,0,0,0,23,23.24l-3.89-3.8A7.4,7.4,0,0,1,13,21.6,7.81,7.81,0,0,1,7.54,19L3.87,22.87A13.18,13.18,0,0,0,15.74,26.85Z" fill="#66a756"/></svg>